<svg width="263" height="24" fill="none" xmlns="http://www.w3.org/2000/svg"><path fill="#000" d="M0 .665h262.772v22H0z"/><path d="M12.209.649h9.728l6.368 22.016h-7.52l-.832-4.224h-5.696l-.928 4.224h-7.2L12.209.649zm6.976 13.856l-2.08-9.632-2.176 9.632h4.256zm18.055 8.672c-3.008 0-5.547-.555-7.616-1.664l1.6-4.96c2.197.79 4.16 1.184 5.888 1.184.938 0 1.621-.107 2.048-.32.448-.235.672-.576.672-1.024 0-.299-.118-.555-.352-.768-.235-.235-.704-.49-1.408-.768-.704-.277-1.76-.619-3.168-1.024-1.728-.512-3.072-1.344-4.032-2.496a6.188 6.188 0 01-1.44-4.032c0-2.347.768-4.117 2.304-5.312C33.293.777 35.384.169 38.008.169c1.365 0 2.71.15 4.032.448 1.322.277 2.496.693 3.52 1.248l-1.728 4.832c-1.195-.405-2.24-.693-3.136-.864a11.923 11.923 0 00-2.56-.288c-1.408 0-2.112.384-2.112 1.152 0 .384.224.715.672.992.47.256 1.418.587 2.848.992 2.24.597 3.936 1.515 5.088 2.752 1.152 1.216 1.728 2.677 1.728 4.384 0 2.368-.768 4.192-2.304 5.472-1.536 1.259-3.808 1.888-6.816 1.888zM49.36.649h7.424v8.992h2.304L63.345.649h7.392v1.44l-5.056 9.472 5.792 9.664v1.44h-7.776l-4.736-8.736h-2.176v8.736h-7.424V.649zm24.532 0h15.456v4.864h-7.68v4h7.008v4.032h-7.009v4.256h7.68v4.864H73.892V.649zM95.58 22.857c-1.13 0-2.016-.31-2.656-.928-.64-.619-.96-1.397-.96-2.336 0-.96.33-1.739.992-2.336.661-.597 1.536-.896 2.624-.896 1.066 0 1.93.32 2.592.96.661.619.992 1.376.992 2.272 0 1.003-.31 1.803-.928 2.4-.619.576-1.504.864-2.656.864zm16.719.32c-2.304 0-4.352-.49-6.144-1.472a10.736 10.736 0 01-4.16-4.064c-.981-1.75-1.472-3.733-1.472-5.952 0-2.24.491-4.235 1.472-5.984a10.45 10.45 0 014.16-4.064c1.792-.981 3.84-1.472 6.144-1.472 2.304 0 4.342.49 6.112 1.472 1.792.96 3.179 2.315 4.16 4.064 1.003 1.728 1.504 3.723 1.504 5.984 0 2.219-.501 4.203-1.504 5.952-.981 1.728-2.368 3.083-4.16 4.064-1.792.981-3.829 1.472-6.112 1.472zm0-5.824c1.344 0 2.443-.523 3.296-1.568.875-1.045 1.312-2.421 1.312-4.128 0-1.13-.202-2.133-.608-3.008-.384-.896-.928-1.59-1.632-2.08a3.978 3.978 0 00-2.4-.768 3.93 3.93 0 00-2.368.768c-.704.49-1.248 1.184-1.632 2.08-.384.875-.576 1.877-.576 3.008 0 1.707.427 3.083 1.28 4.128.854 1.045 1.963 1.568 3.328 1.568zM127.143.649h6.432l8.768 11.872V.649h5.728v22.016h-6.4l-8.832-11.456v11.456h-5.696V.649zm25.093 0h6.912v17.152h7.648v4.864h-14.56V.649zm17.219 0h7.392v22.016h-7.392V.649zm11.563 0h6.432l8.768 11.872V.649h5.728v22.016h-6.4l-8.832-11.456v11.456h-5.696V.649zm25.093 0h15.456v4.864h-7.68v4h7.008v4.032h-7.008v4.256h7.68v4.864h-15.456V.649z" fill="#8D8D8D"/></svg>