<svg width="204" height="213" fill="none" xmlns="http://www.w3.org/2000/svg"><path d="M136.13 84.177c.297.309.532.676.692 1.08a3.464 3.464 0 010 2.549c-.16.404-.395.77-.692 1.08L91.505 135.48a3.18 3.18 0 01-1.034.722 3.062 3.062 0 01-2.442 0 3.18 3.18 0 01-1.034-.722L67.87 115.511a3.408 3.408 0 01-.934-2.355c0-.883.336-1.73.934-2.354a3.121 3.121 0 012.255-.976 3.12 3.12 0 012.255.976l16.87 17.614 42.37-44.24a3.18 3.18 0 011.034-.722 3.072 3.072 0 012.442 0 3.18 3.18 0 011.034.723zm39.182-44.24v133.125c0 2.649-1.007 5.188-2.8 7.061-1.794 1.872-4.226 2.924-6.762 2.924H38.25c-2.536 0-4.968-1.052-6.762-2.924-1.793-1.873-2.8-4.412-2.8-7.061V39.937c0-2.648 1.007-5.187 2.8-7.06 1.794-1.872 4.226-2.924 6.762-2.924h127.5c2.536 0 4.968 1.052 6.762 2.924 1.793 1.873 2.8 4.412 2.8 7.06zm-6.374 0c0-.882-.336-1.729-.934-2.353a3.122 3.122 0 00-2.254-.975H38.25a3.12 3.12 0 00-2.254.975 3.404 3.404 0 00-.934 2.353v133.125c0 .883.336 1.73.934 2.354a3.122 3.122 0 002.254.975h127.5c.845 0 1.656-.351 2.254-.975a3.404 3.404 0 00.934-2.354V39.937z" fill="#000"/></svg>