<svg width="100" height="70" viewBox="0 0 118 89" fill="none" xmlns="http://www.w3.org/2000/svg"><g style="mix-blend-mode:multiply"><mask id="a" fill="#fff"><path fill-rule="evenodd" clip-rule="evenodd" d="M84.356.524c-2.456 2.045-5.059 5.927-4.41 6.575.372.372 1.014.209 1.39-.354l.843-1.257c.279-.415 1.019-1.354 1.644-2.086C84.97 2.058 85.696.675 85.488.225c-.17-.365-.413-.3-1.132.299zM65.53 6.91c-.11.03-.45.101-.755.157-.56.102-.934.5-2.051 2.182-1.131 1.704-1.692 1.896-3.42 1.169-1.855-.781-3.34-.431-5.184 1.222-.628.563-1.48 1.477-1.891 2.03-.412.555-.827 1.007-.922 1.007-.274 0-.2-1.14.105-1.636.758-1.229.545-2.873-.372-2.873-1.131 0-1.517 1.082-1.517 4.263 0 2.963-.223 3.586-1.78 4.967-1.186 1.051-1.769 1.292-3.133 1.292-2.14 0-2.737.56-2.737 2.56 0 1.65-.165 1.762-1.899 1.297-.718-.192-1.438-.35-1.6-.35-.568 0-2.252.7-3.347 1.39-1.023.645-1.193.695-2.23.662l-1.124-.036-.256 1.038c-.14.571-.305 1.264-.366 1.54-.187.852-.603 1.194-1.819 1.492-.633.156-1.36.354-1.614.44-.254.085-.76.155-1.123.155-.934 0-1.257-.535-.993-1.644.226-.948-.094-1.696-.725-1.696-.609 0-.801.366-.864 1.647-.067 1.356.042 1.251-2.175 2.076-.616.23-1.82.945-2.718 1.615l-1.61 1.204-1.24-.101c-.983-.08-1.308-.046-1.561.165-.377.312-.384.374-.116 1.01.113.266.52.663.906.881.774.438.848.703.399 1.417-.166.263-.301.58-.301.702 0 .123-.093.584-.207 1.025-.19.732-.283.827-1.085 1.102-.534.183-1.207.625-1.717 1.128l-.84.826-2.254.005c-1.902.005-2.323.055-2.706.32-.548.379-.581.863-.084 1.236.294.22.8.276 2.521.276 2.114 0 2.172.01 3.135.56.576.329 1.499.655 2.236.79.967.179 1.303.32 1.468.621.3.546-.29 1.4-1.46 2.114-1.274.777-1.874 1.344-1.794 1.693.038.163.608.602 1.267.975 1.899 1.077 2.306 1.968 1.265 2.773-.783.605-1.638.422-3.4-.726-.694-.452-.813-.473-2.114-.378-.758.056-1.83.119-2.383.14l-1.005.04-.263-.664c-.35-.883-.754-1.223-1.699-1.434-1.452-.325-3.31.486-4 1.744-.425.777-.512 2.424-.158 2.995 1.136 1.829 3.888 2.155 5.208.618.237-.277.512-.504.61-.504.098 0 .458.338.801.752l.624.751h1.755c1.57 0 1.84.047 2.558.448.816.455 1.337.883 2.246 1.845 1.078 1.141 3.819 2.437 6.963 3.293.858.234 1.719.49 1.912.57.194.08.859.337 1.48.572.947.358 1.196.547 1.56 1.19.238.42.432.912.432 1.093 0 1.63 3.165 4.684 4.854 4.684.848 0 1.792-.9 2.465-2.353 1.02-2.2 1.578-2.984 2.378-3.34.367-.162.552-.075 1.507.707 1.07.877 1.097.887 1.637.637.726-.336.834-1.212.255-2.068-.61-.9-.26-1.364 1.602-2.127.83-.34 1.3-.38 5.537-.475 5.056-.113 5.432-.07 7.139.822.503.263 1.365.674 1.916.913.588.254 1.8 1.114 2.928 2.077 2.517 2.147 3.443 2.535 6.044 2.535 2.354 0 2.597.121 5.07 2.537.522.51 1.282 1.058 1.69 1.218 1.367.539 3.073.025 3.39-1.022.16-.527-.466-1.705-1.222-2.303-.319-.252-1.44-.792-2.492-1.2a79.889 79.889 0 01-2.262-.905c-.193-.089-.464-.163-.604-.164-.14 0-1.234-.55-2.43-1.222-2.39-1.342-4.617-3.034-4.527-3.442.032-.144.393-.397.802-.563.65-.264.853-.275 1.61-.092.477.116 1.547.595 2.377 1.065 1.769 1.002 2.758 1.289 3.681 1.07 1.782-.425 2.681-.08 4.09 1.565.409.478 1.07 1.125 1.47 1.438.68.533 3.277 2.02 3.527 2.02.063 0 .772.349 1.576.775 1.751.93 3.345 2.05 7.1 4.996 1.55 1.216 3.092 2.399 3.427 2.629.91.624 2.23 1.151 2.956 1.179.837.032 1.151-.56.803-1.511-.327-.893-1.037-1.486-3.443-2.877-4.309-2.49-9.47-6.207-9.793-7.05-.065-.172-.203-.312-.306-.312-.104 0-.188-.126-.188-.28 0-.155-.088-.512-.195-.794a10.62 10.62 0 01-.315-1.004c-.076-.306-.718-.998-1.704-1.837l-1.584-1.346-.246-1.503c-.207-1.268-.353-1.627-.934-2.294-1.226-1.406-.73-1.849 1.644-1.467 2.99.481 3.302.63 5 2.382 1.019 1.051 1.941 1.273 3.658.878 2.206-.507 2.972-.506 3.95.006.68.357.973.423 1.362.307.663-.196.928-.584.765-1.122-.15-.494-1.614-1.805-2.844-2.547-1.26-.759-1.704-1.343-1.99-2.613-.144-.635-.583-.962-1.29-.962-.475 0-1.603-.87-1.863-1.44-.243-.53-.247-1.495-.01-2.182.134-.387.109-.613-.094-.834-.153-.168-.28-.355-.284-.418-.015-.27 2.289-.638 3.994-.638 1.968 0 2.924-.198 5.008-1.04 2.222-.897 4.331-1.155 12.851-1.57 1.005-.049 1.956-.156 2.114-.238.394-.203.056-.631-.836-1.061-.745-.36-1.774-.396-8.137-.29-2.025.033-3.253-.018-3.725-.156-.388-.113-1.375-.25-2.194-.306-1.42-.094-1.518-.128-2.098-.724-.543-.558-.582-.669-.355-1.02.14-.217.697-.668 1.239-1.004 1.087-.673 1.435-1.313.939-1.725-.244-.203-1.143-.278-4.41-.372-3.51-.1-4.199-.164-4.754-.436-.357-.175-.649-.377-.649-.45 0-.073.37-.255.823-.406.752-.25 1.273-.794 1.054-1.102-.049-.068-.308-.125-.576-.125-.748 0-2.106-.507-2.106-.786 0-.527.658-1.325 1.555-1.886 1.677-1.048 2.102-1.458 2.032-1.96-.06-.438-.125-.465-1.222-.512-1.04-.045-1.157-.087-1.157-.418 0-.201.275-.63.61-.951.769-.74.95-1.283.54-1.623-.41-.34-1.064-.19-1.956.449-.893.64-1.208.642-1.208.008 0-.655-.676-.813-1.744-.408-1.17.443-1.636.85-1.525 1.33.077.335.014.41-.344.41-.623 0-2.373-.496-2.62-.742-.526-.527-.218-4.689.434-5.867.282-.508.123-1.478-.251-1.537-.503-.079-1.634.662-2.062 1.351-.543.872-1.179 1.209-1.737.92-.55-.285-.529-.736.084-1.737.488-.8.666-2.03.381-2.645-.162-.35-1.073-.332-1.615.032-.872.585-1.46 2.024-1.475 3.606-.01 1.21-.54 2.516-1.251 3.094-.296.24-.768.619-1.05.843-.603.48-.863 1.26-.53 1.594.129.128.477.257.773.285.468.045.548.138.603.7.093.935-.23 1.109-.969.522-.332-.264-.605-.548-.605-.63 0-.223-1.694-2.313-2.294-2.83-.401-.345-.525-.622-.525-1.177 0-.399.076-.796.168-.884.092-.087.273-.467.402-.845.275-.804.137-1.26-.892-2.929-1.05-1.703-.943-2.055 1.005-3.301 1.408-.902 2.078-1.939 1.752-2.713-.34-.81-.262-1.48.287-2.456.276-.493.553-1.207.614-1.587.062-.38.152-.854.2-1.054.05-.2-.054-.482-.228-.627-.316-.262-.414-.285-.79-.18zm16.566 3.264c-.383.19-.85 1.4-.68 1.765.228.492 1.712.136 2.128-.51.133-.204.21-.59.174-.858-.056-.405-.168-.493-.671-.527-.332-.023-.76.036-.95.13zm-9.895 3.346c-.948.62-.583 2.342.493 2.321.157-.003.49-.147.739-.32.643-.444.646-1.714.005-2.087-.57-.33-.6-.328-1.237.086zm5.717 2.958c-1.211 1.042-1.594 2.208-.726 2.208.799 0 2.4-1.72 2.293-2.463-.101-.704-.536-.633-1.567.255zm-45.866 2.324c-.95 1.112-1.447 3.913-.775 4.376.973.67 2.005-1.178 1.9-3.405-.071-1.513-.41-1.806-1.125-.97zm59.468 2.809c-.434.32-.898.582-1.032.582-.389 0-1.989.627-2.575 1.01-.68.444-.697.952-.036 1.16.645.204.975.1 2.284-.723 1.268-.796 1.963-1.113 2.441-1.113.507 0 1.058-.579.98-1.03-.11-.648-1.104-.594-2.062.114zM23.46 24.57c-.423.5-.393 1.104.087 1.758.465.632 1.067.7 1.788.202.373-.258.479-.5.49-1.128.02-1.057-.123-1.204-1.169-1.204-.683 0-.953.084-1.196.372zm73.527 11.293c-.778.388-.912.852-.354 1.227.974.654 2.93.093 2.422-.695-.236-.367-.998-.847-1.306-.825-.114.009-.457.14-.762.293zm-84.763.141c-.194.043-.352.18-.352.306 0 .285 1.23 1.082 1.668 1.082.177 0 .377.076.446.167.145.195 1.24.227 1.379.041.052-.07.045-.34-.015-.6-.192-.83-1.688-1.307-3.126-.996zm98.451 6.801c-.64.114-1.258.286-1.375.383-.609.506 3.433 1.72 5.726 1.72 1.925 0 2.826-.373 2.912-1.205l.061-.583-1.671-.275c-1.94-.32-4.003-.334-5.653-.04zm-8.754 12.662c-.631.252-.566.542.237 1.05.546.345.871.426 1.56.385.835-.05.869-.073.813-.553-.108-.927-1.403-1.365-2.61-.882zm4.055.795c-.629.21-.719.751-.194 1.16.562.438 1.127.44 1.688.006.561-.433.559-.742-.006-1.07-.495-.287-.85-.31-1.488-.096zM76.714 71.74c-1.112 1.17.424 3.805 2.997 5.141 1.092.568 2.539.976 3.014.85.971-.255.213-2.562-1.398-4.252-.905-.95-2.586-1.953-3.536-2.11-.524-.088-.697-.028-1.076.37zm-38.06 2.519c-.276.042-1.413.587-2.527 1.21-1.115.622-2.384 1.284-2.822 1.47-1.147.49-1.796 1.147-2.29 2.32-.601 1.431-.733 2.555-.348 2.977.552.606 5.236.332 9.393-.55 1.484-.314 2.352-.867 3.2-2.039.931-1.286.257-3.554-1.408-4.736-.998-.708-1.791-.87-3.198-.652zM28.18 86.328c-.9.747-.946.935-.476 1.957l.33.715h1.35c1.568 0 1.82-.153 2.42-1.463l.382-.833-.442-.313c-1.384-.98-2.437-.998-3.564-.063z"/></mask><path fill-rule="evenodd" clip-rule="evenodd" d="M84.356.524c-2.456 2.045-5.059 5.927-4.41 6.575.372.372 1.014.209 1.39-.354l.843-1.257c.279-.415 1.019-1.354 1.644-2.086C84.97 2.058 85.696.675 85.488.225c-.17-.365-.413-.3-1.132.299zM65.53 6.91c-.11.03-.45.101-.755.157-.56.102-.934.5-2.051 2.182-1.131 1.704-1.692 1.896-3.42 1.169-1.855-.781-3.34-.431-5.184 1.222-.628.563-1.48 1.477-1.891 2.03-.412.555-.827 1.007-.922 1.007-.274 0-.2-1.14.105-1.636.758-1.229.545-2.873-.372-2.873-1.131 0-1.517 1.082-1.517 4.263 0 2.963-.223 3.586-1.78 4.967-1.186 1.051-1.769 1.292-3.133 1.292-2.14 0-2.737.56-2.737 2.56 0 1.65-.165 1.762-1.899 1.297-.718-.192-1.438-.35-1.6-.35-.568 0-2.252.7-3.347 1.39-1.023.645-1.193.695-2.23.662l-1.124-.036-.256 1.038c-.14.571-.305 1.264-.366 1.54-.187.852-.603 1.194-1.819 1.492-.633.156-1.36.354-1.614.44-.254.085-.76.155-1.123.155-.934 0-1.257-.535-.993-1.644.226-.948-.094-1.696-.725-1.696-.609 0-.801.366-.864 1.647-.067 1.356.042 1.251-2.175 2.076-.616.23-1.82.945-2.718 1.615l-1.61 1.204-1.24-.101c-.983-.08-1.308-.046-1.561.165-.377.312-.384.374-.116 1.01.113.266.52.663.906.881.774.438.848.703.399 1.417-.166.263-.301.58-.301.702 0 .123-.093.584-.207 1.025-.19.732-.283.827-1.085 1.102-.534.183-1.207.625-1.717 1.128l-.84.826-2.254.005c-1.902.005-2.323.055-2.706.32-.548.379-.581.863-.084 1.236.294.22.8.276 2.521.276 2.114 0 2.172.01 3.135.56.576.329 1.499.655 2.236.79.967.179 1.303.32 1.468.621.3.546-.29 1.4-1.46 2.114-1.274.777-1.874 1.344-1.794 1.693.038.163.608.602 1.267.975 1.899 1.077 2.306 1.968 1.265 2.773-.783.605-1.638.422-3.4-.726-.694-.452-.813-.473-2.114-.378-.758.056-1.83.119-2.383.14l-1.005.04-.263-.664c-.35-.883-.754-1.223-1.699-1.434-1.452-.325-3.31.486-4 1.744-.425.777-.512 2.424-.158 2.995 1.136 1.829 3.888 2.155 5.208.618.237-.277.512-.504.61-.504.098 0 .458.338.801.752l.624.751h1.755c1.57 0 1.84.047 2.558.448.816.455 1.337.883 2.246 1.845 1.078 1.141 3.819 2.437 6.963 3.293.858.234 1.719.49 1.912.57.194.08.859.337 1.48.572.947.358 1.196.547 1.56 1.19.238.42.432.912.432 1.093 0 1.63 3.165 4.684 4.854 4.684.848 0 1.792-.9 2.465-2.353 1.02-2.2 1.578-2.984 2.378-3.34.367-.162.552-.075 1.507.707 1.07.877 1.097.887 1.637.637.726-.336.834-1.212.255-2.068-.61-.9-.26-1.364 1.602-2.127.83-.34 1.3-.38 5.537-.475 5.056-.113 5.432-.07 7.139.822.503.263 1.365.674 1.916.913.588.254 1.8 1.114 2.928 2.077 2.517 2.147 3.443 2.535 6.044 2.535 2.354 0 2.597.121 5.07 2.537.522.51 1.282 1.058 1.69 1.218 1.367.539 3.073.025 3.39-1.022.16-.527-.466-1.705-1.222-2.303-.319-.252-1.44-.792-2.492-1.2a79.889 79.889 0 01-2.262-.905c-.193-.089-.464-.163-.604-.164-.14 0-1.234-.55-2.43-1.222-2.39-1.342-4.617-3.034-4.527-3.442.032-.144.393-.397.802-.563.65-.264.853-.275 1.61-.092.477.116 1.547.595 2.377 1.065 1.769 1.002 2.758 1.289 3.681 1.07 1.782-.425 2.681-.08 4.09 1.565.409.478 1.07 1.125 1.47 1.438.68.533 3.277 2.02 3.527 2.02.063 0 .772.349 1.576.775 1.751.93 3.345 2.05 7.1 4.996 1.55 1.216 3.092 2.399 3.427 2.629.91.624 2.23 1.151 2.956 1.179.837.032 1.151-.56.803-1.511-.327-.893-1.037-1.486-3.443-2.877-4.309-2.49-9.47-6.207-9.793-7.05-.065-.172-.203-.312-.306-.312-.104 0-.188-.126-.188-.28 0-.155-.088-.512-.195-.794a10.62 10.62 0 01-.315-1.004c-.076-.306-.718-.998-1.704-1.837l-1.584-1.346-.246-1.503c-.207-1.268-.353-1.627-.934-2.294-1.226-1.406-.73-1.849 1.644-1.467 2.99.481 3.302.63 5 2.382 1.019 1.051 1.941 1.273 3.658.878 2.206-.507 2.972-.506 3.95.006.68.357.973.423 1.362.307.663-.196.928-.584.765-1.122-.15-.494-1.614-1.805-2.844-2.547-1.26-.759-1.704-1.343-1.99-2.613-.144-.635-.583-.962-1.29-.962-.475 0-1.603-.87-1.863-1.44-.243-.53-.247-1.495-.01-2.182.134-.387.109-.613-.094-.834-.153-.168-.28-.355-.284-.418-.015-.27 2.289-.638 3.994-.638 1.968 0 2.924-.198 5.008-1.04 2.222-.897 4.331-1.155 12.851-1.57 1.005-.049 1.956-.156 2.114-.238.394-.203.056-.631-.836-1.061-.745-.36-1.774-.396-8.137-.29-2.025.033-3.253-.018-3.725-.156-.388-.113-1.375-.25-2.194-.306-1.42-.094-1.518-.128-2.098-.724-.543-.558-.582-.669-.355-1.02.14-.217.697-.668 1.239-1.004 1.087-.673 1.435-1.313.939-1.725-.244-.203-1.143-.278-4.41-.372-3.51-.1-4.199-.164-4.754-.436-.357-.175-.649-.377-.649-.45 0-.073.37-.255.823-.406.752-.25 1.273-.794 1.054-1.102-.049-.068-.308-.125-.576-.125-.748 0-2.106-.507-2.106-.786 0-.527.658-1.325 1.555-1.886 1.677-1.048 2.102-1.458 2.032-1.96-.06-.438-.125-.465-1.222-.512-1.04-.045-1.157-.087-1.157-.418 0-.201.275-.63.61-.951.769-.74.95-1.283.54-1.623-.41-.34-1.064-.19-1.956.449-.893.64-1.208.642-1.208.008 0-.655-.676-.813-1.744-.408-1.17.443-1.636.85-1.525 1.33.077.335.014.41-.344.41-.623 0-2.373-.496-2.62-.742-.526-.527-.218-4.689.434-5.867.282-.508.123-1.478-.251-1.537-.503-.079-1.634.662-2.062 1.351-.543.872-1.179 1.209-1.737.92-.55-.285-.529-.736.084-1.737.488-.8.666-2.03.381-2.645-.162-.35-1.073-.332-1.615.032-.872.585-1.46 2.024-1.475 3.606-.01 1.21-.54 2.516-1.251 3.094-.296.24-.768.619-1.05.843-.603.48-.863 1.26-.53 1.594.129.128.477.257.773.285.468.045.548.138.603.7.093.935-.23 1.109-.969.522-.332-.264-.605-.548-.605-.63 0-.223-1.694-2.313-2.294-2.83-.401-.345-.525-.622-.525-1.177 0-.399.076-.796.168-.884.092-.087.273-.467.402-.845.275-.804.137-1.26-.892-2.929-1.05-1.703-.943-2.055 1.005-3.301 1.408-.902 2.078-1.939 1.752-2.713-.34-.81-.262-1.48.287-2.456.276-.493.553-1.207.614-1.587.062-.38.152-.854.2-1.054.05-.2-.054-.482-.228-.627-.316-.262-.414-.285-.79-.18zm16.566 3.264c-.383.19-.85 1.4-.68 1.765.228.492 1.712.136 2.128-.51.133-.204.21-.59.174-.858-.056-.405-.168-.493-.671-.527-.332-.023-.76.036-.95.13zm-9.895 3.346c-.948.62-.583 2.342.493 2.321.157-.003.49-.147.739-.32.643-.444.646-1.714.005-2.087-.57-.33-.6-.328-1.237.086zm5.717 2.958c-1.211 1.042-1.594 2.208-.726 2.208.799 0 2.4-1.72 2.293-2.463-.101-.704-.536-.633-1.567.255zm-45.866 2.324c-.95 1.112-1.447 3.913-.775 4.376.973.67 2.005-1.178 1.9-3.405-.071-1.513-.41-1.806-1.125-.97zm59.468 2.809c-.434.32-.898.582-1.032.582-.389 0-1.989.627-2.575 1.01-.68.444-.697.952-.036 1.16.645.204.975.1 2.284-.723 1.268-.796 1.963-1.113 2.441-1.113.507 0 1.058-.579.98-1.03-.11-.648-1.104-.594-2.062.114zM23.46 24.57c-.423.5-.393 1.104.087 1.758.465.632 1.067.7 1.788.202.373-.258.479-.5.49-1.128.02-1.057-.123-1.204-1.169-1.204-.683 0-.953.084-1.196.372zm73.527 11.293c-.778.388-.912.852-.354 1.227.974.654 2.93.093 2.422-.695-.236-.367-.998-.847-1.306-.825-.114.009-.457.14-.762.293zm-84.763.141c-.194.043-.352.18-.352.306 0 .285 1.23 1.082 1.668 1.082.177 0 .377.076.446.167.145.195 1.24.227 1.379.041.052-.07.045-.34-.015-.6-.192-.83-1.688-1.307-3.126-.996zm98.451 6.801c-.64.114-1.258.286-1.375.383-.609.506 3.433 1.72 5.726 1.72 1.925 0 2.826-.373 2.912-1.205l.061-.583-1.671-.275c-1.94-.32-4.003-.334-5.653-.04zm-8.754 12.662c-.631.252-.566.542.237 1.05.546.345.871.426 1.56.385.835-.05.869-.073.813-.553-.108-.927-1.403-1.365-2.61-.882zm4.055.795c-.629.21-.719.751-.194 1.16.562.438 1.127.44 1.688.006.561-.433.559-.742-.006-1.07-.495-.287-.85-.31-1.488-.096zM76.714 71.74c-1.112 1.17.424 3.805 2.997 5.141 1.092.568 2.539.976 3.014.85.971-.255.213-2.562-1.398-4.252-.905-.95-2.586-1.953-3.536-2.11-.524-.088-.697-.028-1.076.37zm-38.06 2.519c-.276.042-1.413.587-2.527 1.21-1.115.622-2.384 1.284-2.822 1.47-1.147.49-1.796 1.147-2.29 2.32-.601 1.431-.733 2.555-.348 2.977.552.606 5.236.332 9.393-.55 1.484-.314 2.352-.867 3.2-2.039.931-1.286.257-3.554-1.408-4.736-.998-.708-1.791-.87-3.198-.652zM28.18 86.328c-.9.747-.946.935-.476 1.957l.33.715h1.35c1.568 0 1.82-.153 2.42-1.463l.382-.833-.442-.313c-1.384-.98-2.437-.998-3.564-.063z" fill="#DBFE01"/><path clip-rule="evenodd" d="M84.356.524c-2.456 2.045-5.059 5.927-4.41 6.575.372.372 1.014.209 1.39-.354l.843-1.257c.279-.415 1.019-1.354 1.644-2.086C84.97 2.058 85.696.675 85.488.225c-.17-.365-.413-.3-1.132.299zM65.53 6.91c-.11.03-.45.101-.755.157-.56.102-.934.5-2.051 2.182-1.131 1.704-1.692 1.896-3.42 1.169-1.855-.781-3.34-.431-5.184 1.222-.628.563-1.48 1.477-1.891 2.03-.412.555-.827 1.007-.922 1.007-.274 0-.2-1.14.105-1.636.758-1.229.545-2.873-.372-2.873-1.131 0-1.517 1.082-1.517 4.263 0 2.963-.223 3.586-1.78 4.967-1.186 1.051-1.769 1.292-3.133 1.292-2.14 0-2.737.56-2.737 2.56 0 1.65-.165 1.762-1.899 1.297-.718-.192-1.438-.35-1.6-.35-.568 0-2.252.7-3.347 1.39-1.023.645-1.193.695-2.23.662l-1.124-.036-.256 1.038c-.14.571-.305 1.264-.366 1.54-.187.852-.603 1.194-1.819 1.492-.633.156-1.36.354-1.614.44-.254.085-.76.155-1.123.155-.934 0-1.257-.535-.993-1.644.226-.948-.094-1.696-.725-1.696-.609 0-.801.366-.864 1.647-.067 1.356.042 1.251-2.175 2.076-.616.23-1.82.945-2.718 1.615l-1.61 1.204-1.24-.101c-.983-.08-1.308-.046-1.561.165-.377.312-.384.374-.116 1.01.113.266.52.663.906.881.774.438.848.703.399 1.417-.166.263-.301.58-.301.702 0 .123-.093.584-.207 1.025-.19.732-.283.827-1.085 1.102-.534.183-1.207.625-1.717 1.128l-.84.826-2.254.005c-1.902.005-2.323.055-2.706.32-.548.379-.581.863-.084 1.236.294.22.8.276 2.521.276 2.114 0 2.172.01 3.135.56.576.329 1.499.655 2.236.79.967.179 1.303.32 1.468.621.3.546-.29 1.4-1.46 2.114-1.274.777-1.874 1.344-1.794 1.693.038.163.608.602 1.267.975 1.899 1.077 2.306 1.968 1.265 2.773-.783.605-1.638.422-3.4-.726-.694-.452-.813-.473-2.114-.378-.758.056-1.83.119-2.383.14l-1.005.04-.263-.664c-.35-.883-.754-1.223-1.699-1.434-1.452-.325-3.31.486-4 1.744-.425.777-.512 2.424-.158 2.995 1.136 1.829 3.888 2.155 5.208.618.237-.277.512-.504.61-.504.098 0 .458.338.801.752l.624.751h1.755c1.57 0 1.84.047 2.558.448.816.455 1.337.883 2.246 1.845 1.078 1.141 3.819 2.437 6.963 3.293.858.234 1.719.49 1.912.57.194.08.859.337 1.48.572.947.358 1.196.547 1.56 1.19.238.42.432.912.432 1.093 0 1.63 3.165 4.684 4.854 4.684.848 0 1.792-.9 2.465-2.353 1.02-2.2 1.578-2.984 2.378-3.34.367-.162.552-.075 1.507.707 1.07.877 1.097.887 1.637.637.726-.336.834-1.212.255-2.068-.61-.9-.26-1.364 1.602-2.127.83-.34 1.3-.38 5.537-.475 5.056-.113 5.432-.07 7.139.822.503.263 1.365.674 1.916.913.588.254 1.8 1.114 2.928 2.077 2.517 2.147 3.443 2.535 6.044 2.535 2.354 0 2.597.121 5.07 2.537.522.51 1.282 1.058 1.69 1.218 1.367.539 3.073.025 3.39-1.022.16-.527-.466-1.705-1.222-2.303-.319-.252-1.44-.792-2.492-1.2a79.889 79.889 0 01-2.262-.905c-.193-.089-.464-.163-.604-.164-.14 0-1.234-.55-2.43-1.222-2.39-1.342-4.617-3.034-4.527-3.442.032-.144.393-.397.802-.563.65-.264.853-.275 1.61-.092.477.116 1.547.595 2.377 1.065 1.769 1.002 2.758 1.289 3.681 1.07 1.782-.425 2.681-.08 4.09 1.565.409.478 1.07 1.125 1.47 1.438.68.533 3.277 2.02 3.527 2.02.063 0 .772.349 1.576.775 1.751.93 3.345 2.05 7.1 4.996 1.55 1.216 3.092 2.399 3.427 2.629.91.624 2.23 1.151 2.956 1.179.837.032 1.151-.56.803-1.511-.327-.893-1.037-1.486-3.443-2.877-4.309-2.49-9.47-6.207-9.793-7.05-.065-.172-.203-.312-.306-.312-.104 0-.188-.126-.188-.28 0-.155-.088-.512-.195-.794a10.62 10.62 0 01-.315-1.004c-.076-.306-.718-.998-1.704-1.837l-1.584-1.346-.246-1.503c-.207-1.268-.353-1.627-.934-2.294-1.226-1.406-.73-1.849 1.644-1.467 2.99.481 3.302.63 5 2.382 1.019 1.051 1.941 1.273 3.658.878 2.206-.507 2.972-.506 3.95.006.68.357.973.423 1.362.307.663-.196.928-.584.765-1.122-.15-.494-1.614-1.805-2.844-2.547-1.26-.759-1.704-1.343-1.99-2.613-.144-.635-.583-.962-1.29-.962-.475 0-1.603-.87-1.863-1.44-.243-.53-.247-1.495-.01-2.182.134-.387.109-.613-.094-.834-.153-.168-.28-.355-.284-.418-.015-.27 2.289-.638 3.994-.638 1.968 0 2.924-.198 5.008-1.04 2.222-.897 4.331-1.155 12.851-1.57 1.005-.049 1.956-.156 2.114-.238.394-.203.056-.631-.836-1.061-.745-.36-1.774-.396-8.137-.29-2.025.033-3.253-.018-3.725-.156-.388-.113-1.375-.25-2.194-.306-1.42-.094-1.518-.128-2.098-.724-.543-.558-.582-.669-.355-1.02.14-.217.697-.668 1.239-1.004 1.087-.673 1.435-1.313.939-1.725-.244-.203-1.143-.278-4.41-.372-3.51-.1-4.199-.164-4.754-.436-.357-.175-.649-.377-.649-.45 0-.073.37-.255.823-.406.752-.25 1.273-.794 1.054-1.102-.049-.068-.308-.125-.576-.125-.748 0-2.106-.507-2.106-.786 0-.527.658-1.325 1.555-1.886 1.677-1.048 2.102-1.458 2.032-1.96-.06-.438-.125-.465-1.222-.512-1.04-.045-1.157-.087-1.157-.418 0-.201.275-.63.61-.951.769-.74.95-1.283.54-1.623-.41-.34-1.064-.19-1.956.449-.893.64-1.208.642-1.208.008 0-.655-.676-.813-1.744-.408-1.17.443-1.636.85-1.525 1.33.077.335.014.41-.344.41-.623 0-2.373-.496-2.62-.742-.526-.527-.218-4.689.434-5.867.282-.508.123-1.478-.251-1.537-.503-.079-1.634.662-2.062 1.351-.543.872-1.179 1.209-1.737.92-.55-.285-.529-.736.084-1.737.488-.8.666-2.03.381-2.645-.162-.35-1.073-.332-1.615.032-.872.585-1.46 2.024-1.475 3.606-.01 1.21-.54 2.516-1.251 3.094-.296.24-.768.619-1.05.843-.603.48-.863 1.26-.53 1.594.129.128.477.257.773.285.468.045.548.138.603.7.093.935-.23 1.109-.969.522-.332-.264-.605-.548-.605-.63 0-.223-1.694-2.313-2.294-2.83-.401-.345-.525-.622-.525-1.177 0-.399.076-.796.168-.884.092-.087.273-.467.402-.845.275-.804.137-1.26-.892-2.929-1.05-1.703-.943-2.055 1.005-3.301 1.408-.902 2.078-1.939 1.752-2.713-.34-.81-.262-1.48.287-2.456.276-.493.553-1.207.614-1.587.062-.38.152-.854.2-1.054.05-.2-.054-.482-.228-.627-.316-.262-.414-.285-.79-.18zm16.566 3.264c-.383.19-.85 1.4-.68 1.765.228.492 1.712.136 2.128-.51.133-.204.21-.59.174-.858-.056-.405-.168-.493-.671-.527-.332-.023-.76.036-.95.13zm-9.895 3.346c-.948.62-.583 2.342.493 2.321.157-.003.49-.147.739-.32.643-.444.646-1.714.005-2.087-.57-.33-.6-.328-1.237.086zm5.717 2.958c-1.211 1.042-1.594 2.208-.726 2.208.799 0 2.4-1.72 2.293-2.463-.101-.704-.536-.633-1.567.255zm-45.866 2.324c-.95 1.112-1.447 3.913-.775 4.376.973.67 2.005-1.178 1.9-3.405-.071-1.513-.41-1.806-1.125-.97zm59.468 2.809c-.434.32-.898.582-1.032.582-.389 0-1.989.627-2.575 1.01-.68.444-.697.952-.036 1.16.645.204.975.1 2.284-.723 1.268-.796 1.963-1.113 2.441-1.113.507 0 1.058-.579.98-1.03-.11-.648-1.104-.594-2.062.114zM23.46 24.57c-.423.5-.393 1.104.087 1.758.465.632 1.067.7 1.788.202.373-.258.479-.5.49-1.128.02-1.057-.123-1.204-1.169-1.204-.683 0-.953.084-1.196.372zm73.527 11.293c-.778.388-.912.852-.354 1.227.974.654 2.93.093 2.422-.695-.236-.367-.998-.847-1.306-.825-.114.009-.457.14-.762.293zm-84.763.141c-.194.043-.352.18-.352.306 0 .285 1.23 1.082 1.668 1.082.177 0 .377.076.446.167.145.195 1.24.227 1.379.041.052-.07.045-.34-.015-.6-.192-.83-1.688-1.307-3.126-.996zm98.451 6.801c-.64.114-1.258.286-1.375.383-.609.506 3.433 1.72 5.726 1.72 1.925 0 2.826-.373 2.912-1.205l.061-.583-1.671-.275c-1.94-.32-4.003-.334-5.653-.04zm-8.754 12.662c-.631.252-.566.542.237 1.05.546.345.871.426 1.56.385.835-.05.869-.073.813-.553-.108-.927-1.403-1.365-2.61-.882zm4.055.795c-.629.21-.719.751-.194 1.16.562.438 1.127.44 1.688.006.561-.433.559-.742-.006-1.07-.495-.287-.85-.31-1.488-.096zM76.714 71.74c-1.112 1.17.424 3.805 2.997 5.141 1.092.568 2.539.976 3.014.85.971-.255.213-2.562-1.398-4.252-.905-.95-2.586-1.953-3.536-2.11-.524-.088-.697-.028-1.076.37zm-38.06 2.519c-.276.042-1.413.587-2.527 1.21-1.115.622-2.384 1.284-2.822 1.47-1.147.49-1.796 1.147-2.29 2.32-.601 1.431-.733 2.555-.348 2.977.552.606 5.236.332 9.393-.55 1.484-.314 2.352-.867 3.2-2.039.931-1.286.257-3.554-1.408-4.736-.998-.708-1.791-.87-3.198-.652zM28.18 86.328c-.9.747-.946.935-.476 1.957l.33.715h1.35c1.568 0 1.82-.153 2.42-1.463l.382-.833-.442-.313c-1.384-.98-2.437-.998-3.564-.063z" stroke="#000" stroke-width="2" mask="url(#a)"/></g></svg>