<svg width="72" height="50" fill="none" xmlns="http://www.w3.org/2000/svg"><path fill-rule="evenodd" clip-rule="evenodd" d="M26.834.699C20.54 1.75 12.053 4.208 7.857 6.969-1.554 13.16-1.648 21.175 6.65 26.006c3.378 1.966 2.279 3.212 2.74 6.75.895 6.875 1.695 9.205 4.612 11.938 4.42 4.14 11.1 5.22 21.44 5.197 9.33-.02 16.213-2.123 19.924-5.197 2.568-2.127 4.806-7.596 4.806-11.937 0-3.388-.08-2.557 3.542-4.466 9.014-4.75 10.252-15.172 2.89-21.324-6.404-5.352-26.82-8.434-39.77-6.27zm30.082 3.956c3.693 1.19 6.836 2.884 8.814 4.75l3.074 2.897-4.07-2.486c-9.388-5.736-24.4-6.615-40.02-.669-3.23 1.23-8.72 3.142-12.39 4.255s-8.233 3.21-9.065 3.958c-1.412 1.27-1.187 1.678-1.187 0 0-2.237 5.54-7.837 9.978-10.086 7.782-3.943 14.003-5.038 26.955-4.745 9.749.221 13.314.644 17.911 2.126zm2.026 4.492c4.441 1.397 10.281 5.701 10.281 8.292 0 2.493-2.348 5.876-5.509 7.933-1.573 1.025-3.167 1.864-3.542 1.864-.192 0-.028-.687 0-1.664.027-.928.21-1.896.302-3.316.317-4.953-.46-5.768-2.676-7.81-3.256-2.998-8.697-4.703-16.918-5.299-3.817-.276-6.78-.662-6.584-.856.782-.776 12.135-1.382 16.472-1.017 2.54.213 5.96 1.177 8.173 1.873zm-10.217 3.155c6.072 1.805 9.586 3.563 9.586 6.977v2.137l-3.987-2.137c-11.06-4.438-27.311-4.93-38.41-.477l-3.77 1.795v-1.795c0-2.03.392-3.242 1.05-3.247.577-.004 3.873-.964 6.412-2.143 2.54-1.18 6.327-1.81 8.174-2.211 4.619-1.003 15.745-.444 20.945 1.101zm-38.259 9.114v5.02l-3.12-2.507c-1.87-.947-3.29-2.04-3.576-2.779-.63-1.63 1.69-3.79 4.087-3.79 1.435 0 2.609-.359 2.609 4.056zM45.66 19.28c2.446.516 6.472 1.558 8.664 2.655l3.987 1.995-.037 4.363c-.127 15.195-5.666 19.43-24.633 18.831-8.054-.253-9.956-.595-13.545-2.428-2.295-1.174-5.038-3.408-6.094-4.963-1.672-2.465-1.888-3.695-1.678-9.539l.24-6.709 3.35-1.444c7.393-3.583 20.342-4.743 29.745-2.761z" fill="#000"/></svg>