<svg width="524" height="101" fill="none" xmlns="http://www.w3.org/2000/svg"><path d="M248.572.378C216.01 2.474 153.488 21.74 94.677 47.8a31444.3 31444.3 0 00-13.885 6.157C41.772 71.278 20.785 82.202 6.096 92.838.363 96.99-.13 97.493.022 99.044c.222 2.263 1.154 1.914 11.792-4.42 11.008-6.553 20.874-11.312 47.933-23.118 90.436-39.46 132.676-53.925 180.056-61.663 9.285-1.516 24.115-1.252 24.115.43 0 2.245-9.302 9.905-30.838 25.394-26.494 19.056-42.623 31.697-44.051 34.525-2.441 4.833.244 8.32 6.052 7.863 3.32-.261 4.074-.459 19.292-5.058 43.695-13.203 71.62-19.905 109.467-26.269 57.634-9.691 94.356-13.267 163.395-15.91 24.808-.949 26.09-1.081 30.669-3.16 1.765-.8 3.873-1.584 4.685-1.74 1.903-.365 1.879-.832-.059-1.177-.844-.15-2.784-.867-4.311-1.593-3.766-1.791-6.262-1.885-27.769-1.041-72.097 2.825-110.032 6.44-165.003 15.718-28.91 4.88-41.793 7.531-62.844 12.935-14.392 3.694-52.379 14.448-57.7 16.334-2.903 1.03 9.7-8.68 31.836-24.527 28.002-20.045 33.577-25.49 33.603-32.814.029-8.258-5.06-10.45-21.77-9.375z" fill="#DBFE01"/><path d="M248.572.378C216.01 2.474 153.488 21.74 94.677 47.8a31444.3 31444.3 0 00-13.885 6.157C41.772 71.278 20.785 82.202 6.096 92.838.363 96.99-.13 97.493.022 99.044c.222 2.263 1.154 1.914 11.792-4.42 11.008-6.553 20.874-11.312 47.933-23.118 90.436-39.46 132.676-53.925 180.056-61.663 9.285-1.516 24.115-1.252 24.115.43 0 2.245-9.302 9.905-30.838 25.394-26.494 19.056-42.623 31.697-44.051 34.525-2.441 4.833.244 8.32 6.052 7.863 3.32-.261 4.074-.459 19.292-5.058 43.695-13.203 71.62-19.905 109.467-26.269 57.634-9.691 94.356-13.267 163.395-15.91 24.808-.949 26.09-1.081 30.669-3.16 1.765-.8 3.873-1.584 4.685-1.74 1.903-.365 1.879-.832-.059-1.177-.844-.15-2.784-.867-4.311-1.593-3.766-1.791-6.262-1.885-27.769-1.041-72.097 2.825-110.032 6.44-165.003 15.718-28.91 4.88-41.793 7.531-62.844 12.935-14.392 3.694-52.379 14.448-57.7 16.334-2.903 1.03 9.7-8.68 31.836-24.527 28.002-20.045 33.577-25.49 33.603-32.814.029-8.258-5.06-10.45-21.77-9.375z" stroke="#DBFE01"/></svg>