<svg width="102" height="69" fill="none" xmlns="http://www.w3.org/2000/svg"><path fill-rule="evenodd" clip-rule="evenodd" d="M37.793.966c-9.07 1.456-21.297 4.853-27.342 8.67-13.56 8.564-13.695 19.65-1.739 26.33 4.867 2.72 3.283 4.443 3.947 9.337 1.29 9.506 2.442 12.729 6.646 16.508C25.672 67.537 35.297 69.03 50.196 69c13.441-.028 23.359-2.938 28.705-7.189 3.701-2.941 6.925-10.505 6.925-16.508 0-4.685-.116-3.536 5.104-6.176 12.988-6.569 14.77-20.982 4.164-29.49C85.867 2.234 56.45-2.028 37.793.967zm43.342 5.472c5.322 1.647 9.85 3.988 12.699 6.568l4.429 4.008-5.863-3.439c-13.528-7.932-35.157-9.148-57.66-.925-4.657 1.701-12.566 4.345-17.854 5.884-5.286 1.54-11.861 4.44-13.06 5.475-2.034 1.755-1.71 2.32-1.71 0 0-3.095 7.982-10.838 14.376-13.95 11.212-5.452 20.176-6.967 38.837-6.561 14.046.306 19.182.89 25.806 2.94zm2.918 6.212c6.4 1.932 14.814 7.885 14.814 11.467 0 3.449-3.383 8.127-7.937 10.972-2.268 1.417-4.564 2.577-5.104 2.577-.277 0-.04-.95 0-2.3.039-1.285.304-2.623.436-4.587.457-6.85-.663-7.977-3.856-10.8-4.69-4.147-12.531-6.505-24.376-7.329-5.5-.382-9.767-.915-9.485-1.184 1.125-1.073 17.483-1.911 23.732-1.406 3.658.295 8.587 1.628 11.776 2.59zm-14.72 4.364c8.749 2.496 13.812 4.926 13.812 9.648v2.956l-5.744-2.956c-15.936-6.138-39.35-6.817-55.34-.66l-5.432 2.483v-2.483c0-2.807.563-4.482 1.511-4.49.832-.005 5.58-1.332 9.24-2.964 3.658-1.633 9.115-2.502 11.776-3.058 6.655-1.387 22.686-.614 30.177 1.524zM14.21 29.617v6.942l-4.495-3.467c-2.694-1.31-4.741-2.82-5.153-3.843-.908-2.256 2.436-5.241 5.889-5.241 2.068 0 3.759-.497 3.759 5.61zm50.707-2.956c3.524.714 9.325 2.155 12.484 3.672l5.744 2.76-.053 6.033C82.91 60.142 74.93 65.997 47.6 65.17c-11.604-.35-14.345-.823-19.515-3.359-3.307-1.623-7.259-4.712-8.78-6.864-2.41-3.408-2.721-5.11-2.419-13.191l.347-9.278 4.827-1.997c10.651-4.956 29.308-6.56 42.857-3.82z" fill="url(#paint0_linear_1079_450)"/><defs><linearGradient id="paint0_linear_1079_450" x1="24.289" y1="54.358" x2="91.774" y2="17.594" gradientUnits="userSpaceOnUse"><stop stop-color="#F860E6"/><stop offset="1" stop-color="#E0E843"/></linearGradient></defs></svg>