<svg width="128" height="129" fill="none" xmlns="http://www.w3.org/2000/svg"><path d="M16 16.113h16v16.112H16V16.113z" fill="#000"/><path d="M48 0v48.338H0V0h48zm-8 8.056H8v32.226h32V8.056zm-8 88.62H16v16.113h16V96.676z" fill="#000"/><path d="M48 80.564v48.338H0V80.564h48zM8 88.62v32.225h32V88.62H8zm88-72.507h16v16.112H96V16.113z" fill="#000"/><path d="M80 0v48.338h48V0H80zm40 8.056v32.226H88V8.056h32zm-56 0V0h8v16.113h-8v16.112h-8V8.056h8zm0 40.282V32.225h8v16.113h-8zM48 64.451v-8.057h8v-8.056h8v16.113h8v-8.057h40v8.057H80v8.056H56v-8.056h-8zm0 0v8.056H16v-8.056H8v8.056H0V56.394h24v8.057h24zm80 8.056h-8V56.394h8v16.113zm-8 0h-8V88.62h16v-8.057h-8v-8.056zm-32 0h16v8.056h-8v8.057h-8V72.507zm16 24.17V88.62h-8v8.056h-8v8.056H72v8.057h24V96.676h8zm0 0h24v8.055h-16v8.057h-8V96.676zM72 88.62v8.056h8V80.563H56v8.057h16z" fill="#000"/><path d="M56 96.676h8v24.169h32v8.056H56V96.676zm72 16.113v16.112h-24v-8.056h16v-8.056h8z" fill="#000"/></svg>