<svg width="263" height="24" viewBox="0 0 263 24" fill="none" xmlns="http://www.w3.org/2000/svg">
<rect width="262.772" height="22" transform="translate(0 0.665039)" fill="black"/>
<path d="M12.2088 0.649038H21.9368L28.3048 22.665H20.7848L19.9528 18.441H14.2568L13.3288 22.665H6.12875L12.2088 0.649038ZM19.1848 14.505L17.1048 4.87304L14.9288 14.505H19.1848ZM37.2398 23.177C34.2318 23.177 31.6931 22.6224 29.6238 21.513L31.2238 16.553C33.4211 17.3424 35.3838 17.737 37.1118 17.737C38.0504 17.737 38.7331 17.6304 39.1598 17.417C39.6078 17.1824 39.8318 16.841 39.8318 16.393C39.8318 16.0944 39.7144 15.8384 39.4798 15.625C39.2451 15.3904 38.7758 15.1344 38.0718 14.857C37.3678 14.5797 36.3118 14.2384 34.9038 13.833C33.1758 13.321 31.8318 12.489 30.8718 11.337C29.9118 10.1637 29.4318 8.81971 29.4318 7.30504C29.4318 4.95837 30.1998 3.1877 31.7358 1.99304C33.2931 0.777039 35.3838 0.169039 38.0078 0.169039C39.3731 0.169039 40.7171 0.318372 42.0398 0.617039C43.3624 0.894371 44.5358 1.31037 45.5598 1.86504L43.8318 6.69704C42.6371 6.29171 41.5918 6.00371 40.6958 5.83304C39.8211 5.64104 38.9678 5.54504 38.1358 5.54504C36.7278 5.54504 36.0238 5.92904 36.0238 6.69704C36.0238 7.08104 36.2478 7.4117 36.6958 7.68904C37.1651 7.94504 38.1144 8.27571 39.5438 8.68104C41.7838 9.27837 43.4798 10.1957 44.6318 11.433C45.7838 12.649 46.3598 14.1104 46.3598 15.817C46.3598 18.185 45.5918 20.009 44.0558 21.289C42.5198 22.5477 40.2478 23.177 37.2398 23.177ZM49.3613 0.649038H56.7853V9.64104H59.0893L63.3453 0.649038H70.7373V2.08904L65.6813 11.561L71.4733 21.225V22.665H63.6973L58.9613 13.929H56.7853V22.665H49.3613V0.649038ZM73.8925 0.649038H89.3485V5.51304H81.6685V9.51304H88.6765V13.545H81.6685V17.801H89.3485V22.665H73.8925V0.649038ZM95.5798 22.857C94.4491 22.857 93.5638 22.5477 92.9238 21.929C92.2838 21.3104 91.9638 20.5317 91.9638 19.593C91.9638 18.633 92.2944 17.8544 92.9557 17.257C93.6171 16.6597 94.4918 16.361 95.5798 16.361C96.6464 16.361 97.5104 16.681 98.1718 17.321C98.8331 17.9397 99.1638 18.697 99.1638 19.593C99.1638 20.5957 98.8544 21.3957 98.2358 21.993C97.6171 22.569 96.7318 22.857 95.5798 22.857ZM112.299 23.177C109.995 23.177 107.947 22.6864 106.155 21.705C104.385 20.7237 102.998 19.369 101.995 17.641C101.014 15.8917 100.523 13.9077 100.523 11.689C100.523 9.44904 101.014 7.45437 101.995 5.70504C102.998 3.9557 104.385 2.60104 106.155 1.64104C107.947 0.659705 109.995 0.169039 112.299 0.169039C114.603 0.169039 116.641 0.659705 118.411 1.64104C120.203 2.60104 121.59 3.9557 122.571 5.70504C123.574 7.43304 124.075 9.4277 124.075 11.689C124.075 13.9077 123.574 15.8917 122.571 17.641C121.59 19.369 120.203 20.7237 118.411 21.705C116.619 22.6864 114.582 23.177 112.299 23.177ZM112.299 17.353C113.643 17.353 114.742 16.8304 115.595 15.785C116.47 14.7397 116.907 13.3637 116.907 11.657C116.907 10.5264 116.705 9.52371 116.299 8.64904C115.915 7.75304 115.371 7.05971 114.667 6.56904C113.963 6.05704 113.163 5.80104 112.267 5.80104C111.393 5.80104 110.603 6.05704 109.899 6.56904C109.195 7.05971 108.651 7.75304 108.267 8.64904C107.883 9.52371 107.691 10.5264 107.691 11.657C107.691 13.3637 108.118 14.7397 108.971 15.785C109.825 16.8304 110.934 17.353 112.299 17.353ZM127.143 0.649038H133.575L142.343 12.521V0.649038H148.071V22.665H141.671L132.839 11.209V22.665H127.143V0.649038ZM152.236 0.649038H159.148V17.801H166.796V22.665H152.236V0.649038ZM169.455 0.649038H176.847V22.665H169.455V0.649038ZM181.018 0.649038H187.45L196.218 12.521V0.649038H201.946V22.665H195.546L186.714 11.209V22.665H181.018V0.649038ZM206.111 0.649038H221.567V5.51304H213.887V9.51304H220.895V13.545H213.887V17.801H221.567V22.665H206.111V0.649038Z" fill="#8D8D8D"/>
</svg>
