<svg width="204" height="213" viewBox="0 0 204 213" fill="none" xmlns="http://www.w3.org/2000/svg">
<path d="M136.13 84.1766C136.427 84.4857 136.662 84.8527 136.822 85.2568C136.982 85.6608 137.065 86.0939 137.065 86.5312C137.065 86.9686 136.982 87.4017 136.822 87.8057C136.662 88.2098 136.427 88.5768 136.13 88.8859L91.5052 135.48C91.2091 135.789 90.8576 136.035 90.4706 136.202C90.0837 136.37 89.6689 136.456 89.25 136.456C88.8311 136.456 88.4163 136.37 88.0294 136.202C87.6424 136.035 87.2909 135.789 86.9948 135.48L67.8698 115.511C67.2717 114.886 66.9357 114.039 66.9357 113.156C66.9357 112.273 67.2717 111.426 67.8698 110.802C68.4679 110.177 69.2792 109.826 70.125 109.826C70.9708 109.826 71.7821 110.177 72.3802 110.802L89.25 128.416L131.62 84.1766C131.916 83.8672 132.267 83.6217 132.654 83.4542C133.041 83.2867 133.456 83.2005 133.875 83.2005C134.294 83.2005 134.709 83.2867 135.096 83.4542C135.483 83.6217 135.834 83.8672 136.13 84.1766ZM175.312 39.9375V173.062C175.312 175.711 174.305 178.25 172.512 180.123C170.718 181.995 168.286 183.047 165.75 183.047H38.25C35.7139 183.047 33.2816 181.995 31.4883 180.123C29.695 178.25 28.6875 175.711 28.6875 173.062V39.9375C28.6875 37.2895 29.695 34.7499 31.4883 32.8775C33.2816 31.005 35.7139 29.9531 38.25 29.9531H165.75C168.286 29.9531 170.718 31.005 172.512 32.8775C174.305 34.7499 175.312 37.2895 175.312 39.9375ZM168.938 39.9375C168.938 39.0548 168.602 38.2083 168.004 37.5842C167.406 36.96 166.595 36.6094 165.75 36.6094H38.25C37.4046 36.6094 36.5939 36.96 35.9961 37.5842C35.3983 38.2083 35.0625 39.0548 35.0625 39.9375V173.062C35.0625 173.945 35.3983 174.792 35.9961 175.416C36.5939 176.04 37.4046 176.391 38.25 176.391H165.75C166.595 176.391 167.406 176.04 168.004 175.416C168.602 174.792 168.938 173.945 168.938 173.062V39.9375Z" fill="black"/>
</svg>
