<svg width="60" height="50" viewBox="0 0 118 89" fill="none" xmlns="http://www.w3.org/2000/svg">
<g id="image 348 (Traced)" style="mix-blend-mode:multiply">
<mask id="path-1-inside-1_2983_3080" fill="white">
<path fill-rule="evenodd" clip-rule="evenodd" d="M84.3556 0.523908C81.9004 2.56934 79.2971 6.45076 79.9458 7.09911C80.3179 7.47106 80.96 7.30755 81.3361 6.74521C81.5203 6.46964 81.8995 5.90412 82.1787 5.48842C82.4578 5.07289 83.1977 4.13377 83.8228 3.40174C84.9707 2.05794 85.6957 0.674723 85.4877 0.225453C85.3188 -0.139809 85.0754 -0.075675 84.3556 0.523908ZM65.5301 6.91072C65.4193 6.94145 65.0797 7.0121 64.7752 7.06772C64.2151 7.17026 63.8412 7.56809 62.724 9.25043C61.5926 10.9542 61.0319 11.1457 59.3048 10.4189C57.4487 9.63774 55.9636 9.9878 54.1197 11.6411C53.4917 12.2043 52.6406 13.118 52.2287 13.6716C51.8168 14.2255 51.402 14.6784 51.307 14.6784C51.0329 14.6784 51.1064 13.5377 51.4125 13.0417C52.1701 11.8134 51.9571 10.169 51.0404 10.169C49.9087 10.169 49.5235 11.2513 49.5235 14.4316C49.5235 17.3946 49.3 18.018 47.743 19.3989C46.5571 20.4504 45.9741 20.6909 44.6102 20.6909C42.4707 20.6909 41.8726 21.2504 41.8726 23.2509C41.8726 24.9002 41.7077 25.013 39.9743 24.5485C39.2555 24.3559 38.5355 24.1983 38.3741 24.1983C37.8061 24.1983 36.1225 24.8972 35.027 25.5878C34.0036 26.233 33.8344 26.2833 32.7961 26.2499L31.6726 26.214L31.4173 27.252C31.2768 27.823 31.1121 28.5156 31.0515 28.7912C30.8639 29.6439 30.4477 29.9857 29.232 30.2844C28.5988 30.4401 27.8725 30.6375 27.6183 30.7232C27.364 30.8087 26.8582 30.8789 26.4946 30.8789C25.5608 30.8789 25.2378 30.3439 25.502 29.2351C25.7281 28.2871 25.4081 27.5386 24.7769 27.5386C24.1681 27.5386 23.9758 27.9048 23.9126 29.1857C23.8455 30.5418 23.9551 30.4374 21.7385 31.2618C21.1216 31.4915 19.9178 32.2068 19.0204 32.8775L17.4097 34.081L16.1694 33.98C15.1873 33.9 14.8625 33.9342 14.609 34.1445C14.2321 34.4571 14.2251 34.5189 14.4933 35.1546C14.6058 35.4208 15.0135 35.8176 15.3993 36.0361C16.1727 36.474 16.247 36.7387 15.7978 37.4532C15.6323 37.7164 15.497 38.0321 15.497 38.1549C15.497 38.2776 15.4037 38.7387 15.2898 39.1797C15.1003 39.9122 15.0071 40.007 14.205 40.2823C13.6714 40.4653 12.9981 40.9073 12.4875 41.4096L11.6475 42.2359L9.39433 42.2414C7.49206 42.246 7.07086 42.2958 6.68831 42.5605C6.13986 42.94 6.10664 43.4237 6.60354 43.7966C6.8977 44.0176 7.40387 44.073 9.12513 44.073C11.2388 44.073 11.2966 44.0834 12.2598 44.633C12.836 44.9617 13.759 45.2882 14.4955 45.4237C15.4635 45.6019 15.799 45.7435 15.9641 46.0441C16.2641 46.5904 15.6747 47.4432 14.5033 48.158C13.2297 48.9355 12.6295 49.502 12.7104 49.8509C12.7483 50.0137 13.3183 50.4527 13.9768 50.8261C15.8757 51.9028 16.2826 52.7944 15.2419 53.5985C14.4592 54.2035 13.6044 54.0211 11.842 52.873C11.1476 52.4206 11.0294 52.3995 9.72795 52.4951C8.9697 52.5509 7.89736 52.6138 7.34488 52.6354L6.34039 52.6743L6.07704 52.0106C5.72651 51.1281 5.32342 50.7877 4.37813 50.5766C2.92606 50.2522 1.06769 51.0628 0.378904 52.3209C-0.0465281 53.0982 -0.13391 54.7454 0.220248 55.3158C1.35581 57.1448 4.10773 57.4713 5.42772 55.9336C5.6655 55.6567 5.94013 55.43 6.03798 55.43C6.13583 55.43 6.49643 55.7682 6.83932 56.1816L7.46266 56.9332H9.21835C10.7886 56.9332 11.0586 56.9804 11.7758 57.3806C12.5924 57.8362 13.1127 58.2638 14.0223 59.2264C15.1003 60.3673 17.8408 61.6634 20.9845 62.519C21.8432 62.7526 22.7039 63.0093 22.8972 63.0893C23.0905 63.1692 23.7559 63.4264 24.3761 63.6607C25.324 64.0188 25.5726 64.2083 25.9365 64.8505C26.1746 65.2705 26.3693 65.7626 26.3693 65.9439C26.3693 67.5735 29.5344 70.6284 31.2229 70.6284C32.0713 70.6284 33.015 69.7278 33.6881 68.2755C34.7083 66.0744 35.2662 65.2906 36.0657 64.9357C36.4327 64.7727 36.6182 64.8597 37.5727 65.6416C38.6435 66.519 38.6702 66.5293 39.2098 66.2793C39.9361 65.9426 40.0442 65.0665 39.4651 64.2112C38.8557 63.311 39.205 62.847 41.0672 62.0839C41.8961 61.7444 42.3679 61.7038 46.6041 61.6089C51.6601 61.4957 52.0356 61.5389 53.743 62.4313C54.2461 62.6942 55.1085 63.1047 55.6595 63.3435C56.2467 63.5981 57.4585 64.4578 58.5874 65.4209C61.104 67.5677 62.03 67.9561 64.6309 67.9561C66.9854 67.9561 67.228 68.0774 69.701 70.4928C70.2233 71.0028 70.9834 71.551 71.3903 71.7111C72.7582 72.2496 74.4639 71.7355 74.7804 70.6893C74.9401 70.1621 74.3152 68.9839 73.5587 68.386C73.2402 68.1343 72.1189 67.5942 71.0669 67.1857C70.0149 66.7772 68.9969 66.3702 68.8047 66.281C68.6124 66.192 68.3406 66.1181 68.2006 66.1171C68.0607 66.1161 66.9672 65.5662 65.7709 64.8949C63.3801 63.5533 61.1537 61.8606 61.2441 61.4529C61.2759 61.3094 61.6367 61.0563 62.0461 60.8904C62.6964 60.6265 62.8991 60.615 63.6568 60.7984C64.1334 60.9136 65.2029 61.393 66.0334 61.8633C67.8016 62.8649 68.7906 63.152 69.7145 62.9322C71.4956 62.5084 72.3954 62.853 73.8033 64.4981C74.2125 64.9763 74.8741 65.6234 75.2735 65.9363C75.9539 66.4694 78.5508 67.9561 78.8014 67.9561C78.8638 67.9561 79.573 68.305 80.3769 68.7314C82.1284 69.6602 83.7222 70.7817 87.4762 73.7267C89.0265 74.9429 90.5688 76.126 90.9036 76.3558C91.8132 76.9804 93.134 77.5072 93.8599 77.5349C94.6968 77.5668 95.0111 76.9753 94.6626 76.0235C94.336 75.1314 93.6255 74.5379 91.2201 73.1473C86.9112 70.6561 81.7503 66.9404 81.4275 66.0969C81.3619 65.9254 81.2237 65.7849 81.1205 65.7849C81.0172 65.7849 80.9326 65.6587 80.9326 65.5045C80.9326 65.3504 80.8452 64.9933 80.7383 64.7112C80.6314 64.4291 80.4895 63.9773 80.4228 63.7071C80.3473 63.4011 79.7052 62.7089 78.7187 61.8699L77.1355 60.524L76.8895 59.0208C76.6821 57.753 76.5357 57.394 75.9549 56.7274C74.7289 55.3206 75.2246 54.8784 77.5994 55.2603C80.5891 55.7412 80.9012 55.8898 82.5983 57.6415C83.6175 58.6935 84.54 58.9151 86.2569 58.5203C88.4625 58.0132 89.2292 58.0144 90.2069 58.5265C90.8877 58.8829 91.1798 58.9489 91.5694 58.8335C92.2322 58.6374 92.497 58.2489 92.3343 57.7114C92.1849 57.2173 90.72 55.9055 89.4896 55.1638C88.2306 54.4051 87.7858 53.8212 87.4991 52.551C87.3558 51.916 86.9174 51.5887 86.2105 51.5887C85.7348 51.5887 84.6071 50.7182 84.3465 50.1497C84.1037 49.6198 84.0995 48.6542 84.3373 47.9665C84.4712 47.5795 84.4456 47.3542 84.243 47.1326C84.0904 46.9654 83.9626 46.7777 83.9592 46.7154C83.9438 46.4453 86.248 46.0772 87.9531 46.0772C89.9212 46.0772 90.8774 45.8786 92.9607 45.0372C95.1827 44.1398 97.2923 43.8821 105.812 43.4673C106.817 43.4183 107.768 43.3113 107.926 43.2294C108.32 43.026 107.982 42.5979 107.09 42.1679C106.345 41.8086 105.316 41.7721 98.9526 41.8776C96.9277 41.9112 95.7003 41.8597 95.2278 41.7218C94.8402 41.6086 93.8528 41.4711 93.0338 41.4165C91.6137 41.3219 91.5163 41.2882 90.9356 40.6916C90.3928 40.1341 90.3543 40.0232 90.5808 39.6722C90.7206 39.4554 91.2781 39.0036 91.8199 38.6683C92.9067 37.9952 93.2552 37.3547 92.7587 36.9428C92.5147 36.7404 91.6163 36.6647 88.3482 36.571C84.8388 36.4705 84.1502 36.4074 83.5951 36.1353C83.2382 35.9604 82.946 35.7577 82.946 35.6849C82.946 35.612 83.3161 35.4297 83.7685 35.2795C84.5213 35.0297 85.042 34.4855 84.8233 34.1774C84.7744 34.1086 84.5151 34.0521 84.2469 34.0521C83.4991 34.0521 82.1406 33.5451 82.1406 33.266C82.1406 32.7389 82.7992 31.9406 83.6964 31.3799C85.3734 30.3319 85.7978 29.9222 85.7279 29.4191C85.6675 28.9824 85.6033 28.9555 84.5064 28.9081C83.4659 28.8631 83.3487 28.8207 83.3491 28.4905C83.3495 28.2885 83.6235 27.8601 83.9581 27.5386C84.7277 26.7993 84.9089 26.2559 84.4992 25.9162C84.0896 25.5763 83.4345 25.7266 82.5433 26.3649C81.6502 27.0046 81.3353 27.0066 81.3353 26.3726C81.3353 25.7183 80.6588 25.5601 79.5907 25.9649C78.4219 26.4077 77.9554 26.8145 78.0659 27.2942C78.1432 27.6296 78.0796 27.7056 77.722 27.7056C77.0991 27.7056 75.3492 27.2094 75.1024 26.9627C74.5759 26.4364 74.8839 22.2742 75.5365 21.0956C75.8176 20.5879 75.6587 19.6177 75.285 19.5591C74.7821 19.4803 73.6513 20.221 73.2227 20.9101C72.6803 21.7821 72.0442 22.1189 71.4863 21.83C70.9355 21.5446 70.957 21.0943 71.5695 20.0929C72.0581 19.2939 72.2359 18.0628 71.9514 17.4479C71.7893 17.0975 70.8775 17.1155 70.3355 17.4796C69.4639 18.0653 68.8753 19.5045 68.861 21.0861C68.8502 22.2961 68.3218 23.6022 67.6099 24.1797C67.3141 24.4196 66.842 24.799 66.5605 25.023C65.9569 25.5035 65.6972 26.2839 66.0304 26.617C66.159 26.7454 66.5068 26.8738 66.8031 26.9024C67.2709 26.9472 67.3506 27.0397 67.4062 27.6024C67.4986 28.537 67.1756 28.7108 66.4375 28.1241C66.1045 27.8596 65.8321 27.5763 65.8321 27.4948C65.8321 27.2715 64.1376 25.1808 63.5382 24.6649C63.1367 24.3192 63.0133 24.0423 63.0133 23.4874C63.0133 23.0884 63.0886 22.6906 63.1806 22.6033C63.2728 22.5161 63.4538 22.1358 63.5829 21.7585C63.8583 20.9538 63.7198 20.4989 62.6908 18.8294C61.641 17.126 61.7481 16.7741 63.6959 15.5277C65.104 14.6265 65.7739 13.5895 65.4483 12.8145C65.1083 12.0055 65.1864 11.3358 65.7346 10.3589C66.0111 9.86638 66.2877 9.1524 66.3493 8.77227C66.4109 8.39231 66.5011 7.91765 66.5496 7.71757C66.5982 7.51765 66.4953 7.23573 66.3211 7.09126C66.0046 6.82872 65.9072 6.8065 65.5301 6.91072ZM82.0964 10.1754C81.7128 10.3654 81.2469 11.5744 81.4162 11.9402C81.6435 12.4317 83.1278 12.0762 83.5444 11.4303C83.6765 11.2257 83.7544 10.8394 83.7175 10.5719C83.6618 10.1665 83.5502 10.0787 83.0467 10.0446C82.7145 10.0222 82.2868 10.081 82.0964 10.1754ZM72.2015 13.5215C71.2526 14.1406 71.6178 15.8629 72.6936 15.842C72.8508 15.8388 73.1834 15.6954 73.4327 15.5228C74.076 15.0777 74.0794 13.8078 73.4381 13.4353C72.8689 13.1045 72.8371 13.1066 72.2015 13.5215ZM77.9177 16.4787C76.7069 17.5207 76.3239 18.6868 77.1925 18.6868C77.9906 18.6868 79.5915 16.9669 79.4848 16.2238C79.3839 15.5202 78.9492 15.591 77.9177 16.4787ZM32.052 18.8032C31.1018 19.9148 30.6053 22.7163 31.2766 23.1786C32.2503 23.8489 33.2816 22.0013 33.1769 19.7742C33.1058 18.261 32.7661 17.9678 32.052 18.8032ZM91.5197 21.6117C91.086 21.932 90.6219 22.1941 90.4884 22.1941C90.099 22.1941 88.4994 22.8211 87.9135 23.2034C87.2321 23.6479 87.2162 24.1563 87.877 24.3648C88.5219 24.568 88.8519 24.4635 90.1614 23.6409C91.4289 22.8451 92.1239 22.5281 92.6021 22.5281C93.1091 22.5281 93.6599 21.9494 93.5828 21.498C93.4721 20.8496 92.4777 20.9044 91.5197 21.6117ZM23.4614 24.5695C23.0382 25.0706 23.0682 25.6743 23.5484 26.3277C24.0131 26.9598 24.6153 27.028 25.3357 26.5303C25.7095 26.2719 25.815 26.0292 25.8263 25.4016C25.8457 24.3446 25.7035 24.1983 24.6575 24.1983C23.9736 24.1983 23.7042 24.2818 23.4614 24.5695ZM96.9879 35.8627C96.2099 36.251 96.076 36.715 96.6339 37.0898C97.608 37.7442 99.5647 37.183 99.0563 36.395C98.8197 36.0284 98.0584 35.5478 97.75 35.5705C97.6362 35.579 97.2933 35.7104 96.9879 35.8627ZM12.2252 36.0044C12.0313 36.0465 11.8728 36.1842 11.8728 36.3105C11.8728 36.5948 13.1028 37.3924 13.5409 37.3924C13.7177 37.3924 13.9184 37.4676 13.9869 37.5594C14.1317 37.7538 15.2274 37.7862 15.3659 37.6002C15.4176 37.5309 15.4108 37.2605 15.3506 36.9994C15.1593 36.1694 13.6627 35.6929 12.2252 36.0044ZM110.676 42.805C110.036 42.9189 109.418 43.0913 109.301 43.188C108.692 43.6936 112.734 44.9081 115.027 44.9081C116.952 44.9081 117.853 44.5355 117.939 43.7033L118 43.12L116.329 42.8448C114.389 42.5255 112.326 42.5109 110.676 42.805ZM101.922 55.4668C101.291 55.7195 101.356 56.0094 102.159 56.5173C102.705 56.8625 103.03 56.9427 103.719 56.9016C104.554 56.8518 104.588 56.8289 104.532 56.3486C104.424 55.4215 103.129 54.9841 101.922 55.4668ZM105.977 56.2618C105.348 56.4724 105.258 57.0133 105.783 57.4227C106.345 57.8603 106.91 57.8619 107.471 57.4277C108.032 56.995 108.03 56.6863 107.465 56.3581C106.97 56.0709 106.615 56.0478 105.977 56.2618ZM76.7145 71.7399C75.6021 72.9093 77.1381 75.5448 79.7113 76.8814C80.8029 77.4486 82.25 77.8568 82.7249 77.7317C83.6962 77.476 82.9378 75.1693 81.3266 73.4785C80.4222 72.5293 78.7408 71.5256 77.7913 71.3681C77.267 71.2812 77.094 71.3409 76.7145 71.7399ZM38.6539 74.2588C38.3785 74.3014 37.2413 74.8457 36.1269 75.4683C35.0123 76.0908 33.7426 76.7528 33.3053 76.9394C32.1581 77.4286 31.5094 78.0858 31.0159 79.2587C30.4137 80.6902 30.2822 81.8135 30.6672 82.2359C31.2194 82.8417 35.9032 82.5678 40.0605 81.6868C41.544 81.3723 42.4119 80.8191 43.26 79.6472C44.191 78.3608 43.5167 76.0934 41.8516 74.9111C40.8538 74.2027 40.0605 74.0408 38.6539 74.2588ZM28.1814 86.3278C27.2808 87.0748 27.2351 87.2629 27.7054 88.2847L28.0348 89H29.3856C30.9529 89 31.2055 88.8472 31.8059 87.5366L32.1873 86.7037L31.7447 86.3906C30.3613 85.4113 29.3085 85.3928 28.1814 86.3278Z"/>
</mask>
<path fill-rule="evenodd" clip-rule="evenodd" d="M84.3556 0.523908C81.9004 2.56934 79.2971 6.45076 79.9458 7.09911C80.3179 7.47106 80.96 7.30755 81.3361 6.74521C81.5203 6.46964 81.8995 5.90412 82.1787 5.48842C82.4578 5.07289 83.1977 4.13377 83.8228 3.40174C84.9707 2.05794 85.6957 0.674723 85.4877 0.225453C85.3188 -0.139809 85.0754 -0.075675 84.3556 0.523908ZM65.5301 6.91072C65.4193 6.94145 65.0797 7.0121 64.7752 7.06772C64.2151 7.17026 63.8412 7.56809 62.724 9.25043C61.5926 10.9542 61.0319 11.1457 59.3048 10.4189C57.4487 9.63774 55.9636 9.9878 54.1197 11.6411C53.4917 12.2043 52.6406 13.118 52.2287 13.6716C51.8168 14.2255 51.402 14.6784 51.307 14.6784C51.0329 14.6784 51.1064 13.5377 51.4125 13.0417C52.1701 11.8134 51.9571 10.169 51.0404 10.169C49.9087 10.169 49.5235 11.2513 49.5235 14.4316C49.5235 17.3946 49.3 18.018 47.743 19.3989C46.5571 20.4504 45.9741 20.6909 44.6102 20.6909C42.4707 20.6909 41.8726 21.2504 41.8726 23.2509C41.8726 24.9002 41.7077 25.013 39.9743 24.5485C39.2555 24.3559 38.5355 24.1983 38.3741 24.1983C37.8061 24.1983 36.1225 24.8972 35.027 25.5878C34.0036 26.233 33.8344 26.2833 32.7961 26.2499L31.6726 26.214L31.4173 27.252C31.2768 27.823 31.1121 28.5156 31.0515 28.7912C30.8639 29.6439 30.4477 29.9857 29.232 30.2844C28.5988 30.4401 27.8725 30.6375 27.6183 30.7232C27.364 30.8087 26.8582 30.8789 26.4946 30.8789C25.5608 30.8789 25.2378 30.3439 25.502 29.2351C25.7281 28.2871 25.4081 27.5386 24.7769 27.5386C24.1681 27.5386 23.9758 27.9048 23.9126 29.1857C23.8455 30.5418 23.9551 30.4374 21.7385 31.2618C21.1216 31.4915 19.9178 32.2068 19.0204 32.8775L17.4097 34.081L16.1694 33.98C15.1873 33.9 14.8625 33.9342 14.609 34.1445C14.2321 34.4571 14.2251 34.5189 14.4933 35.1546C14.6058 35.4208 15.0135 35.8176 15.3993 36.0361C16.1727 36.474 16.247 36.7387 15.7978 37.4532C15.6323 37.7164 15.497 38.0321 15.497 38.1549C15.497 38.2776 15.4037 38.7387 15.2898 39.1797C15.1003 39.9122 15.0071 40.007 14.205 40.2823C13.6714 40.4653 12.9981 40.9073 12.4875 41.4096L11.6475 42.2359L9.39433 42.2414C7.49206 42.246 7.07086 42.2958 6.68831 42.5605C6.13986 42.94 6.10664 43.4237 6.60354 43.7966C6.8977 44.0176 7.40387 44.073 9.12513 44.073C11.2388 44.073 11.2966 44.0834 12.2598 44.633C12.836 44.9617 13.759 45.2882 14.4955 45.4237C15.4635 45.6019 15.799 45.7435 15.9641 46.0441C16.2641 46.5904 15.6747 47.4432 14.5033 48.158C13.2297 48.9355 12.6295 49.502 12.7104 49.8509C12.7483 50.0137 13.3183 50.4527 13.9768 50.8261C15.8757 51.9028 16.2826 52.7944 15.2419 53.5985C14.4592 54.2035 13.6044 54.0211 11.842 52.873C11.1476 52.4206 11.0294 52.3995 9.72795 52.4951C8.9697 52.5509 7.89736 52.6138 7.34488 52.6354L6.34039 52.6743L6.07704 52.0106C5.72651 51.1281 5.32342 50.7877 4.37813 50.5766C2.92606 50.2522 1.06769 51.0628 0.378904 52.3209C-0.0465281 53.0982 -0.13391 54.7454 0.220248 55.3158C1.35581 57.1448 4.10773 57.4713 5.42772 55.9336C5.6655 55.6567 5.94013 55.43 6.03798 55.43C6.13583 55.43 6.49643 55.7682 6.83932 56.1816L7.46266 56.9332H9.21835C10.7886 56.9332 11.0586 56.9804 11.7758 57.3806C12.5924 57.8362 13.1127 58.2638 14.0223 59.2264C15.1003 60.3673 17.8408 61.6634 20.9845 62.519C21.8432 62.7526 22.7039 63.0093 22.8972 63.0893C23.0905 63.1692 23.7559 63.4264 24.3761 63.6607C25.324 64.0188 25.5726 64.2083 25.9365 64.8505C26.1746 65.2705 26.3693 65.7626 26.3693 65.9439C26.3693 67.5735 29.5344 70.6284 31.2229 70.6284C32.0713 70.6284 33.015 69.7278 33.6881 68.2755C34.7083 66.0744 35.2662 65.2906 36.0657 64.9357C36.4327 64.7727 36.6182 64.8597 37.5727 65.6416C38.6435 66.519 38.6702 66.5293 39.2098 66.2793C39.9361 65.9426 40.0442 65.0665 39.4651 64.2112C38.8557 63.311 39.205 62.847 41.0672 62.0839C41.8961 61.7444 42.3679 61.7038 46.6041 61.6089C51.6601 61.4957 52.0356 61.5389 53.743 62.4313C54.2461 62.6942 55.1085 63.1047 55.6595 63.3435C56.2467 63.5981 57.4585 64.4578 58.5874 65.4209C61.104 67.5677 62.03 67.9561 64.6309 67.9561C66.9854 67.9561 67.228 68.0774 69.701 70.4928C70.2233 71.0028 70.9834 71.551 71.3903 71.7111C72.7582 72.2496 74.4639 71.7355 74.7804 70.6893C74.9401 70.1621 74.3152 68.9839 73.5587 68.386C73.2402 68.1343 72.1189 67.5942 71.0669 67.1857C70.0149 66.7772 68.9969 66.3702 68.8047 66.281C68.6124 66.192 68.3406 66.1181 68.2006 66.1171C68.0607 66.1161 66.9672 65.5662 65.7709 64.8949C63.3801 63.5533 61.1537 61.8606 61.2441 61.4529C61.2759 61.3094 61.6367 61.0563 62.0461 60.8904C62.6964 60.6265 62.8991 60.615 63.6568 60.7984C64.1334 60.9136 65.2029 61.393 66.0334 61.8633C67.8016 62.8649 68.7906 63.152 69.7145 62.9322C71.4956 62.5084 72.3954 62.853 73.8033 64.4981C74.2125 64.9763 74.8741 65.6234 75.2735 65.9363C75.9539 66.4694 78.5508 67.9561 78.8014 67.9561C78.8638 67.9561 79.573 68.305 80.3769 68.7314C82.1284 69.6602 83.7222 70.7817 87.4762 73.7267C89.0265 74.9429 90.5688 76.126 90.9036 76.3558C91.8132 76.9804 93.134 77.5072 93.8599 77.5349C94.6968 77.5668 95.0111 76.9753 94.6626 76.0235C94.336 75.1314 93.6255 74.5379 91.2201 73.1473C86.9112 70.6561 81.7503 66.9404 81.4275 66.0969C81.3619 65.9254 81.2237 65.7849 81.1205 65.7849C81.0172 65.7849 80.9326 65.6587 80.9326 65.5045C80.9326 65.3504 80.8452 64.9933 80.7383 64.7112C80.6314 64.4291 80.4895 63.9773 80.4228 63.7071C80.3473 63.4011 79.7052 62.7089 78.7187 61.8699L77.1355 60.524L76.8895 59.0208C76.6821 57.753 76.5357 57.394 75.9549 56.7274C74.7289 55.3206 75.2246 54.8784 77.5994 55.2603C80.5891 55.7412 80.9012 55.8898 82.5983 57.6415C83.6175 58.6935 84.54 58.9151 86.2569 58.5203C88.4625 58.0132 89.2292 58.0144 90.2069 58.5265C90.8877 58.8829 91.1798 58.9489 91.5694 58.8335C92.2322 58.6374 92.497 58.2489 92.3343 57.7114C92.1849 57.2173 90.72 55.9055 89.4896 55.1638C88.2306 54.4051 87.7858 53.8212 87.4991 52.551C87.3558 51.916 86.9174 51.5887 86.2105 51.5887C85.7348 51.5887 84.6071 50.7182 84.3465 50.1497C84.1037 49.6198 84.0995 48.6542 84.3373 47.9665C84.4712 47.5795 84.4456 47.3542 84.243 47.1326C84.0904 46.9654 83.9626 46.7777 83.9592 46.7154C83.9438 46.4453 86.248 46.0772 87.9531 46.0772C89.9212 46.0772 90.8774 45.8786 92.9607 45.0372C95.1827 44.1398 97.2923 43.8821 105.812 43.4673C106.817 43.4183 107.768 43.3113 107.926 43.2294C108.32 43.026 107.982 42.5979 107.09 42.1679C106.345 41.8086 105.316 41.7721 98.9526 41.8776C96.9277 41.9112 95.7003 41.8597 95.2278 41.7218C94.8402 41.6086 93.8528 41.4711 93.0338 41.4165C91.6137 41.3219 91.5163 41.2882 90.9356 40.6916C90.3928 40.1341 90.3543 40.0232 90.5808 39.6722C90.7206 39.4554 91.2781 39.0036 91.8199 38.6683C92.9067 37.9952 93.2552 37.3547 92.7587 36.9428C92.5147 36.7404 91.6163 36.6647 88.3482 36.571C84.8388 36.4705 84.1502 36.4074 83.5951 36.1353C83.2382 35.9604 82.946 35.7577 82.946 35.6849C82.946 35.612 83.3161 35.4297 83.7685 35.2795C84.5213 35.0297 85.042 34.4855 84.8233 34.1774C84.7744 34.1086 84.5151 34.0521 84.2469 34.0521C83.4991 34.0521 82.1406 33.5451 82.1406 33.266C82.1406 32.7389 82.7992 31.9406 83.6964 31.3799C85.3734 30.3319 85.7978 29.9222 85.7279 29.4191C85.6675 28.9824 85.6033 28.9555 84.5064 28.9081C83.4659 28.8631 83.3487 28.8207 83.3491 28.4905C83.3495 28.2885 83.6235 27.8601 83.9581 27.5386C84.7277 26.7993 84.9089 26.2559 84.4992 25.9162C84.0896 25.5763 83.4345 25.7266 82.5433 26.3649C81.6502 27.0046 81.3353 27.0066 81.3353 26.3726C81.3353 25.7183 80.6588 25.5601 79.5907 25.9649C78.4219 26.4077 77.9554 26.8145 78.0659 27.2942C78.1432 27.6296 78.0796 27.7056 77.722 27.7056C77.0991 27.7056 75.3492 27.2094 75.1024 26.9627C74.5759 26.4364 74.8839 22.2742 75.5365 21.0956C75.8176 20.5879 75.6587 19.6177 75.285 19.5591C74.7821 19.4803 73.6513 20.221 73.2227 20.9101C72.6803 21.7821 72.0442 22.1189 71.4863 21.83C70.9355 21.5446 70.957 21.0943 71.5695 20.0929C72.0581 19.2939 72.2359 18.0628 71.9514 17.4479C71.7893 17.0975 70.8775 17.1155 70.3355 17.4796C69.4639 18.0653 68.8753 19.5045 68.861 21.0861C68.8502 22.2961 68.3218 23.6022 67.6099 24.1797C67.3141 24.4196 66.842 24.799 66.5605 25.023C65.9569 25.5035 65.6972 26.2839 66.0304 26.617C66.159 26.7454 66.5068 26.8738 66.8031 26.9024C67.2709 26.9472 67.3506 27.0397 67.4062 27.6024C67.4986 28.537 67.1756 28.7108 66.4375 28.1241C66.1045 27.8596 65.8321 27.5763 65.8321 27.4948C65.8321 27.2715 64.1376 25.1808 63.5382 24.6649C63.1367 24.3192 63.0133 24.0423 63.0133 23.4874C63.0133 23.0884 63.0886 22.6906 63.1806 22.6033C63.2728 22.5161 63.4538 22.1358 63.5829 21.7585C63.8583 20.9538 63.7198 20.4989 62.6908 18.8294C61.641 17.126 61.7481 16.7741 63.6959 15.5277C65.104 14.6265 65.7739 13.5895 65.4483 12.8145C65.1083 12.0055 65.1864 11.3358 65.7346 10.3589C66.0111 9.86638 66.2877 9.1524 66.3493 8.77227C66.4109 8.39231 66.5011 7.91765 66.5496 7.71757C66.5982 7.51765 66.4953 7.23573 66.3211 7.09126C66.0046 6.82872 65.9072 6.8065 65.5301 6.91072ZM82.0964 10.1754C81.7128 10.3654 81.2469 11.5744 81.4162 11.9402C81.6435 12.4317 83.1278 12.0762 83.5444 11.4303C83.6765 11.2257 83.7544 10.8394 83.7175 10.5719C83.6618 10.1665 83.5502 10.0787 83.0467 10.0446C82.7145 10.0222 82.2868 10.081 82.0964 10.1754ZM72.2015 13.5215C71.2526 14.1406 71.6178 15.8629 72.6936 15.842C72.8508 15.8388 73.1834 15.6954 73.4327 15.5228C74.076 15.0777 74.0794 13.8078 73.4381 13.4353C72.8689 13.1045 72.8371 13.1066 72.2015 13.5215ZM77.9177 16.4787C76.7069 17.5207 76.3239 18.6868 77.1925 18.6868C77.9906 18.6868 79.5915 16.9669 79.4848 16.2238C79.3839 15.5202 78.9492 15.591 77.9177 16.4787ZM32.052 18.8032C31.1018 19.9148 30.6053 22.7163 31.2766 23.1786C32.2503 23.8489 33.2816 22.0013 33.1769 19.7742C33.1058 18.261 32.7661 17.9678 32.052 18.8032ZM91.5197 21.6117C91.086 21.932 90.6219 22.1941 90.4884 22.1941C90.099 22.1941 88.4994 22.8211 87.9135 23.2034C87.2321 23.6479 87.2162 24.1563 87.877 24.3648C88.5219 24.568 88.8519 24.4635 90.1614 23.6409C91.4289 22.8451 92.1239 22.5281 92.6021 22.5281C93.1091 22.5281 93.6599 21.9494 93.5828 21.498C93.4721 20.8496 92.4777 20.9044 91.5197 21.6117ZM23.4614 24.5695C23.0382 25.0706 23.0682 25.6743 23.5484 26.3277C24.0131 26.9598 24.6153 27.028 25.3357 26.5303C25.7095 26.2719 25.815 26.0292 25.8263 25.4016C25.8457 24.3446 25.7035 24.1983 24.6575 24.1983C23.9736 24.1983 23.7042 24.2818 23.4614 24.5695ZM96.9879 35.8627C96.2099 36.251 96.076 36.715 96.6339 37.0898C97.608 37.7442 99.5647 37.183 99.0563 36.395C98.8197 36.0284 98.0584 35.5478 97.75 35.5705C97.6362 35.579 97.2933 35.7104 96.9879 35.8627ZM12.2252 36.0044C12.0313 36.0465 11.8728 36.1842 11.8728 36.3105C11.8728 36.5948 13.1028 37.3924 13.5409 37.3924C13.7177 37.3924 13.9184 37.4676 13.9869 37.5594C14.1317 37.7538 15.2274 37.7862 15.3659 37.6002C15.4176 37.5309 15.4108 37.2605 15.3506 36.9994C15.1593 36.1694 13.6627 35.6929 12.2252 36.0044ZM110.676 42.805C110.036 42.9189 109.418 43.0913 109.301 43.188C108.692 43.6936 112.734 44.9081 115.027 44.9081C116.952 44.9081 117.853 44.5355 117.939 43.7033L118 43.12L116.329 42.8448C114.389 42.5255 112.326 42.5109 110.676 42.805ZM101.922 55.4668C101.291 55.7195 101.356 56.0094 102.159 56.5173C102.705 56.8625 103.03 56.9427 103.719 56.9016C104.554 56.8518 104.588 56.8289 104.532 56.3486C104.424 55.4215 103.129 54.9841 101.922 55.4668ZM105.977 56.2618C105.348 56.4724 105.258 57.0133 105.783 57.4227C106.345 57.8603 106.91 57.8619 107.471 57.4277C108.032 56.995 108.03 56.6863 107.465 56.3581C106.97 56.0709 106.615 56.0478 105.977 56.2618ZM76.7145 71.7399C75.6021 72.9093 77.1381 75.5448 79.7113 76.8814C80.8029 77.4486 82.25 77.8568 82.7249 77.7317C83.6962 77.476 82.9378 75.1693 81.3266 73.4785C80.4222 72.5293 78.7408 71.5256 77.7913 71.3681C77.267 71.2812 77.094 71.3409 76.7145 71.7399ZM38.6539 74.2588C38.3785 74.3014 37.2413 74.8457 36.1269 75.4683C35.0123 76.0908 33.7426 76.7528 33.3053 76.9394C32.1581 77.4286 31.5094 78.0858 31.0159 79.2587C30.4137 80.6902 30.2822 81.8135 30.6672 82.2359C31.2194 82.8417 35.9032 82.5678 40.0605 81.6868C41.544 81.3723 42.4119 80.8191 43.26 79.6472C44.191 78.3608 43.5167 76.0934 41.8516 74.9111C40.8538 74.2027 40.0605 74.0408 38.6539 74.2588ZM28.1814 86.3278C27.2808 87.0748 27.2351 87.2629 27.7054 88.2847L28.0348 89H29.3856C30.9529 89 31.2055 88.8472 31.8059 87.5366L32.1873 86.7037L31.7447 86.3906C30.3613 85.4113 29.3085 85.3928 28.1814 86.3278Z" fill="#DBFE01"/>
<path fill-rule="evenodd" clip-rule="evenodd" d="M84.3556 0.523908C81.9004 2.56934 79.2971 6.45076 79.9458 7.09911C80.3179 7.47106 80.96 7.30755 81.3361 6.74521C81.5203 6.46964 81.8995 5.90412 82.1787 5.48842C82.4578 5.07289 83.1977 4.13377 83.8228 3.40174C84.9707 2.05794 85.6957 0.674723 85.4877 0.225453C85.3188 -0.139809 85.0754 -0.075675 84.3556 0.523908ZM65.5301 6.91072C65.4193 6.94145 65.0797 7.0121 64.7752 7.06772C64.2151 7.17026 63.8412 7.56809 62.724 9.25043C61.5926 10.9542 61.0319 11.1457 59.3048 10.4189C57.4487 9.63774 55.9636 9.9878 54.1197 11.6411C53.4917 12.2043 52.6406 13.118 52.2287 13.6716C51.8168 14.2255 51.402 14.6784 51.307 14.6784C51.0329 14.6784 51.1064 13.5377 51.4125 13.0417C52.1701 11.8134 51.9571 10.169 51.0404 10.169C49.9087 10.169 49.5235 11.2513 49.5235 14.4316C49.5235 17.3946 49.3 18.018 47.743 19.3989C46.5571 20.4504 45.9741 20.6909 44.6102 20.6909C42.4707 20.6909 41.8726 21.2504 41.8726 23.2509C41.8726 24.9002 41.7077 25.013 39.9743 24.5485C39.2555 24.3559 38.5355 24.1983 38.3741 24.1983C37.8061 24.1983 36.1225 24.8972 35.027 25.5878C34.0036 26.233 33.8344 26.2833 32.7961 26.2499L31.6726 26.214L31.4173 27.252C31.2768 27.823 31.1121 28.5156 31.0515 28.7912C30.8639 29.6439 30.4477 29.9857 29.232 30.2844C28.5988 30.4401 27.8725 30.6375 27.6183 30.7232C27.364 30.8087 26.8582 30.8789 26.4946 30.8789C25.5608 30.8789 25.2378 30.3439 25.502 29.2351C25.7281 28.2871 25.4081 27.5386 24.7769 27.5386C24.1681 27.5386 23.9758 27.9048 23.9126 29.1857C23.8455 30.5418 23.9551 30.4374 21.7385 31.2618C21.1216 31.4915 19.9178 32.2068 19.0204 32.8775L17.4097 34.081L16.1694 33.98C15.1873 33.9 14.8625 33.9342 14.609 34.1445C14.2321 34.4571 14.2251 34.5189 14.4933 35.1546C14.6058 35.4208 15.0135 35.8176 15.3993 36.0361C16.1727 36.474 16.247 36.7387 15.7978 37.4532C15.6323 37.7164 15.497 38.0321 15.497 38.1549C15.497 38.2776 15.4037 38.7387 15.2898 39.1797C15.1003 39.9122 15.0071 40.007 14.205 40.2823C13.6714 40.4653 12.9981 40.9073 12.4875 41.4096L11.6475 42.2359L9.39433 42.2414C7.49206 42.246 7.07086 42.2958 6.68831 42.5605C6.13986 42.94 6.10664 43.4237 6.60354 43.7966C6.8977 44.0176 7.40387 44.073 9.12513 44.073C11.2388 44.073 11.2966 44.0834 12.2598 44.633C12.836 44.9617 13.759 45.2882 14.4955 45.4237C15.4635 45.6019 15.799 45.7435 15.9641 46.0441C16.2641 46.5904 15.6747 47.4432 14.5033 48.158C13.2297 48.9355 12.6295 49.502 12.7104 49.8509C12.7483 50.0137 13.3183 50.4527 13.9768 50.8261C15.8757 51.9028 16.2826 52.7944 15.2419 53.5985C14.4592 54.2035 13.6044 54.0211 11.842 52.873C11.1476 52.4206 11.0294 52.3995 9.72795 52.4951C8.9697 52.5509 7.89736 52.6138 7.34488 52.6354L6.34039 52.6743L6.07704 52.0106C5.72651 51.1281 5.32342 50.7877 4.37813 50.5766C2.92606 50.2522 1.06769 51.0628 0.378904 52.3209C-0.0465281 53.0982 -0.13391 54.7454 0.220248 55.3158C1.35581 57.1448 4.10773 57.4713 5.42772 55.9336C5.6655 55.6567 5.94013 55.43 6.03798 55.43C6.13583 55.43 6.49643 55.7682 6.83932 56.1816L7.46266 56.9332H9.21835C10.7886 56.9332 11.0586 56.9804 11.7758 57.3806C12.5924 57.8362 13.1127 58.2638 14.0223 59.2264C15.1003 60.3673 17.8408 61.6634 20.9845 62.519C21.8432 62.7526 22.7039 63.0093 22.8972 63.0893C23.0905 63.1692 23.7559 63.4264 24.3761 63.6607C25.324 64.0188 25.5726 64.2083 25.9365 64.8505C26.1746 65.2705 26.3693 65.7626 26.3693 65.9439C26.3693 67.5735 29.5344 70.6284 31.2229 70.6284C32.0713 70.6284 33.015 69.7278 33.6881 68.2755C34.7083 66.0744 35.2662 65.2906 36.0657 64.9357C36.4327 64.7727 36.6182 64.8597 37.5727 65.6416C38.6435 66.519 38.6702 66.5293 39.2098 66.2793C39.9361 65.9426 40.0442 65.0665 39.4651 64.2112C38.8557 63.311 39.205 62.847 41.0672 62.0839C41.8961 61.7444 42.3679 61.7038 46.6041 61.6089C51.6601 61.4957 52.0356 61.5389 53.743 62.4313C54.2461 62.6942 55.1085 63.1047 55.6595 63.3435C56.2467 63.5981 57.4585 64.4578 58.5874 65.4209C61.104 67.5677 62.03 67.9561 64.6309 67.9561C66.9854 67.9561 67.228 68.0774 69.701 70.4928C70.2233 71.0028 70.9834 71.551 71.3903 71.7111C72.7582 72.2496 74.4639 71.7355 74.7804 70.6893C74.9401 70.1621 74.3152 68.9839 73.5587 68.386C73.2402 68.1343 72.1189 67.5942 71.0669 67.1857C70.0149 66.7772 68.9969 66.3702 68.8047 66.281C68.6124 66.192 68.3406 66.1181 68.2006 66.1171C68.0607 66.1161 66.9672 65.5662 65.7709 64.8949C63.3801 63.5533 61.1537 61.8606 61.2441 61.4529C61.2759 61.3094 61.6367 61.0563 62.0461 60.8904C62.6964 60.6265 62.8991 60.615 63.6568 60.7984C64.1334 60.9136 65.2029 61.393 66.0334 61.8633C67.8016 62.8649 68.7906 63.152 69.7145 62.9322C71.4956 62.5084 72.3954 62.853 73.8033 64.4981C74.2125 64.9763 74.8741 65.6234 75.2735 65.9363C75.9539 66.4694 78.5508 67.9561 78.8014 67.9561C78.8638 67.9561 79.573 68.305 80.3769 68.7314C82.1284 69.6602 83.7222 70.7817 87.4762 73.7267C89.0265 74.9429 90.5688 76.126 90.9036 76.3558C91.8132 76.9804 93.134 77.5072 93.8599 77.5349C94.6968 77.5668 95.0111 76.9753 94.6626 76.0235C94.336 75.1314 93.6255 74.5379 91.2201 73.1473C86.9112 70.6561 81.7503 66.9404 81.4275 66.0969C81.3619 65.9254 81.2237 65.7849 81.1205 65.7849C81.0172 65.7849 80.9326 65.6587 80.9326 65.5045C80.9326 65.3504 80.8452 64.9933 80.7383 64.7112C80.6314 64.4291 80.4895 63.9773 80.4228 63.7071C80.3473 63.4011 79.7052 62.7089 78.7187 61.8699L77.1355 60.524L76.8895 59.0208C76.6821 57.753 76.5357 57.394 75.9549 56.7274C74.7289 55.3206 75.2246 54.8784 77.5994 55.2603C80.5891 55.7412 80.9012 55.8898 82.5983 57.6415C83.6175 58.6935 84.54 58.9151 86.2569 58.5203C88.4625 58.0132 89.2292 58.0144 90.2069 58.5265C90.8877 58.8829 91.1798 58.9489 91.5694 58.8335C92.2322 58.6374 92.497 58.2489 92.3343 57.7114C92.1849 57.2173 90.72 55.9055 89.4896 55.1638C88.2306 54.4051 87.7858 53.8212 87.4991 52.551C87.3558 51.916 86.9174 51.5887 86.2105 51.5887C85.7348 51.5887 84.6071 50.7182 84.3465 50.1497C84.1037 49.6198 84.0995 48.6542 84.3373 47.9665C84.4712 47.5795 84.4456 47.3542 84.243 47.1326C84.0904 46.9654 83.9626 46.7777 83.9592 46.7154C83.9438 46.4453 86.248 46.0772 87.9531 46.0772C89.9212 46.0772 90.8774 45.8786 92.9607 45.0372C95.1827 44.1398 97.2923 43.8821 105.812 43.4673C106.817 43.4183 107.768 43.3113 107.926 43.2294C108.32 43.026 107.982 42.5979 107.09 42.1679C106.345 41.8086 105.316 41.7721 98.9526 41.8776C96.9277 41.9112 95.7003 41.8597 95.2278 41.7218C94.8402 41.6086 93.8528 41.4711 93.0338 41.4165C91.6137 41.3219 91.5163 41.2882 90.9356 40.6916C90.3928 40.1341 90.3543 40.0232 90.5808 39.6722C90.7206 39.4554 91.2781 39.0036 91.8199 38.6683C92.9067 37.9952 93.2552 37.3547 92.7587 36.9428C92.5147 36.7404 91.6163 36.6647 88.3482 36.571C84.8388 36.4705 84.1502 36.4074 83.5951 36.1353C83.2382 35.9604 82.946 35.7577 82.946 35.6849C82.946 35.612 83.3161 35.4297 83.7685 35.2795C84.5213 35.0297 85.042 34.4855 84.8233 34.1774C84.7744 34.1086 84.5151 34.0521 84.2469 34.0521C83.4991 34.0521 82.1406 33.5451 82.1406 33.266C82.1406 32.7389 82.7992 31.9406 83.6964 31.3799C85.3734 30.3319 85.7978 29.9222 85.7279 29.4191C85.6675 28.9824 85.6033 28.9555 84.5064 28.9081C83.4659 28.8631 83.3487 28.8207 83.3491 28.4905C83.3495 28.2885 83.6235 27.8601 83.9581 27.5386C84.7277 26.7993 84.9089 26.2559 84.4992 25.9162C84.0896 25.5763 83.4345 25.7266 82.5433 26.3649C81.6502 27.0046 81.3353 27.0066 81.3353 26.3726C81.3353 25.7183 80.6588 25.5601 79.5907 25.9649C78.4219 26.4077 77.9554 26.8145 78.0659 27.2942C78.1432 27.6296 78.0796 27.7056 77.722 27.7056C77.0991 27.7056 75.3492 27.2094 75.1024 26.9627C74.5759 26.4364 74.8839 22.2742 75.5365 21.0956C75.8176 20.5879 75.6587 19.6177 75.285 19.5591C74.7821 19.4803 73.6513 20.221 73.2227 20.9101C72.6803 21.7821 72.0442 22.1189 71.4863 21.83C70.9355 21.5446 70.957 21.0943 71.5695 20.0929C72.0581 19.2939 72.2359 18.0628 71.9514 17.4479C71.7893 17.0975 70.8775 17.1155 70.3355 17.4796C69.4639 18.0653 68.8753 19.5045 68.861 21.0861C68.8502 22.2961 68.3218 23.6022 67.6099 24.1797C67.3141 24.4196 66.842 24.799 66.5605 25.023C65.9569 25.5035 65.6972 26.2839 66.0304 26.617C66.159 26.7454 66.5068 26.8738 66.8031 26.9024C67.2709 26.9472 67.3506 27.0397 67.4062 27.6024C67.4986 28.537 67.1756 28.7108 66.4375 28.1241C66.1045 27.8596 65.8321 27.5763 65.8321 27.4948C65.8321 27.2715 64.1376 25.1808 63.5382 24.6649C63.1367 24.3192 63.0133 24.0423 63.0133 23.4874C63.0133 23.0884 63.0886 22.6906 63.1806 22.6033C63.2728 22.5161 63.4538 22.1358 63.5829 21.7585C63.8583 20.9538 63.7198 20.4989 62.6908 18.8294C61.641 17.126 61.7481 16.7741 63.6959 15.5277C65.104 14.6265 65.7739 13.5895 65.4483 12.8145C65.1083 12.0055 65.1864 11.3358 65.7346 10.3589C66.0111 9.86638 66.2877 9.1524 66.3493 8.77227C66.4109 8.39231 66.5011 7.91765 66.5496 7.71757C66.5982 7.51765 66.4953 7.23573 66.3211 7.09126C66.0046 6.82872 65.9072 6.8065 65.5301 6.91072ZM82.0964 10.1754C81.7128 10.3654 81.2469 11.5744 81.4162 11.9402C81.6435 12.4317 83.1278 12.0762 83.5444 11.4303C83.6765 11.2257 83.7544 10.8394 83.7175 10.5719C83.6618 10.1665 83.5502 10.0787 83.0467 10.0446C82.7145 10.0222 82.2868 10.081 82.0964 10.1754ZM72.2015 13.5215C71.2526 14.1406 71.6178 15.8629 72.6936 15.842C72.8508 15.8388 73.1834 15.6954 73.4327 15.5228C74.076 15.0777 74.0794 13.8078 73.4381 13.4353C72.8689 13.1045 72.8371 13.1066 72.2015 13.5215ZM77.9177 16.4787C76.7069 17.5207 76.3239 18.6868 77.1925 18.6868C77.9906 18.6868 79.5915 16.9669 79.4848 16.2238C79.3839 15.5202 78.9492 15.591 77.9177 16.4787ZM32.052 18.8032C31.1018 19.9148 30.6053 22.7163 31.2766 23.1786C32.2503 23.8489 33.2816 22.0013 33.1769 19.7742C33.1058 18.261 32.7661 17.9678 32.052 18.8032ZM91.5197 21.6117C91.086 21.932 90.6219 22.1941 90.4884 22.1941C90.099 22.1941 88.4994 22.8211 87.9135 23.2034C87.2321 23.6479 87.2162 24.1563 87.877 24.3648C88.5219 24.568 88.8519 24.4635 90.1614 23.6409C91.4289 22.8451 92.1239 22.5281 92.6021 22.5281C93.1091 22.5281 93.6599 21.9494 93.5828 21.498C93.4721 20.8496 92.4777 20.9044 91.5197 21.6117ZM23.4614 24.5695C23.0382 25.0706 23.0682 25.6743 23.5484 26.3277C24.0131 26.9598 24.6153 27.028 25.3357 26.5303C25.7095 26.2719 25.815 26.0292 25.8263 25.4016C25.8457 24.3446 25.7035 24.1983 24.6575 24.1983C23.9736 24.1983 23.7042 24.2818 23.4614 24.5695ZM96.9879 35.8627C96.2099 36.251 96.076 36.715 96.6339 37.0898C97.608 37.7442 99.5647 37.183 99.0563 36.395C98.8197 36.0284 98.0584 35.5478 97.75 35.5705C97.6362 35.579 97.2933 35.7104 96.9879 35.8627ZM12.2252 36.0044C12.0313 36.0465 11.8728 36.1842 11.8728 36.3105C11.8728 36.5948 13.1028 37.3924 13.5409 37.3924C13.7177 37.3924 13.9184 37.4676 13.9869 37.5594C14.1317 37.7538 15.2274 37.7862 15.3659 37.6002C15.4176 37.5309 15.4108 37.2605 15.3506 36.9994C15.1593 36.1694 13.6627 35.6929 12.2252 36.0044ZM110.676 42.805C110.036 42.9189 109.418 43.0913 109.301 43.188C108.692 43.6936 112.734 44.9081 115.027 44.9081C116.952 44.9081 117.853 44.5355 117.939 43.7033L118 43.12L116.329 42.8448C114.389 42.5255 112.326 42.5109 110.676 42.805ZM101.922 55.4668C101.291 55.7195 101.356 56.0094 102.159 56.5173C102.705 56.8625 103.03 56.9427 103.719 56.9016C104.554 56.8518 104.588 56.8289 104.532 56.3486C104.424 55.4215 103.129 54.9841 101.922 55.4668ZM105.977 56.2618C105.348 56.4724 105.258 57.0133 105.783 57.4227C106.345 57.8603 106.91 57.8619 107.471 57.4277C108.032 56.995 108.03 56.6863 107.465 56.3581C106.97 56.0709 106.615 56.0478 105.977 56.2618ZM76.7145 71.7399C75.6021 72.9093 77.1381 75.5448 79.7113 76.8814C80.8029 77.4486 82.25 77.8568 82.7249 77.7317C83.6962 77.476 82.9378 75.1693 81.3266 73.4785C80.4222 72.5293 78.7408 71.5256 77.7913 71.3681C77.267 71.2812 77.094 71.3409 76.7145 71.7399ZM38.6539 74.2588C38.3785 74.3014 37.2413 74.8457 36.1269 75.4683C35.0123 76.0908 33.7426 76.7528 33.3053 76.9394C32.1581 77.4286 31.5094 78.0858 31.0159 79.2587C30.4137 80.6902 30.2822 81.8135 30.6672 82.2359C31.2194 82.8417 35.9032 82.5678 40.0605 81.6868C41.544 81.3723 42.4119 80.8191 43.26 79.6472C44.191 78.3608 43.5167 76.0934 41.8516 74.9111C40.8538 74.2027 40.0605 74.0408 38.6539 74.2588ZM28.1814 86.3278C27.2808 87.0748 27.2351 87.2629 27.7054 88.2847L28.0348 89H29.3856C30.9529 89 31.2055 88.8472 31.8059 87.5366L32.1873 86.7037L31.7447 86.3906C30.3613 85.4113 29.3085 85.3928 28.1814 86.3278Z" stroke="black" stroke-width="2" mask="url(#path-1-inside-1_2983_3080)"/>
</g>
</svg>
