<svg width="40" height="40" viewBox="0 0 40 40" fill="none" xmlns="http://www.w3.org/2000/svg">
<path d="M8.33325 19.9993V6.66602M31.6666 33.3327V28.3327M8.33325 33.3327V26.666M31.6666 21.666V6.66602M19.9999 11.666V6.66602M19.9999 33.3327V18.3327" stroke="black" stroke-width="1.5" stroke-linecap="round"/>
<path d="M8.33333 26.6667C10.1743 26.6667 11.6667 25.1743 11.6667 23.3333C11.6667 21.4924 10.1743 20 8.33333 20C6.49238 20 5 21.4924 5 23.3333C5 25.1743 6.49238 26.6667 8.33333 26.6667Z" stroke="black" stroke-width="1.5" stroke-linecap="round"/>
<path d="M20.0001 18.3327C21.841 18.3327 23.3334 16.8403 23.3334 14.9993C23.3334 13.1584 21.841 11.666 20.0001 11.666C18.1591 11.666 16.6667 13.1584 16.6667 14.9993C16.6667 16.8403 18.1591 18.3327 20.0001 18.3327Z" stroke="black" stroke-width="1.5" stroke-linecap="round"/>
<path d="M31.6666 28.3327C33.5075 28.3327 34.9999 26.8403 34.9999 24.9993C34.9999 23.1584 33.5075 21.666 31.6666 21.666C29.8256 21.666 28.3333 23.1584 28.3333 24.9993C28.3333 26.8403 29.8256 28.3327 31.6666 28.3327Z" stroke="black" stroke-width="1.5" stroke-linecap="round"/>
</svg>
