<svg width="524" height="101" viewBox="0 0 524 101" fill="none" xmlns="http://www.w3.org/2000/svg">
<path d="M248.572 0.377767C216.01 2.47357 153.488 21.7396 94.6765 47.8C89.9339 49.9017 83.686 52.6721 80.7923 53.9566C41.7711 71.2783 20.7852 82.2017 6.09565 92.8382C0.362777 96.9896 -0.129747 97.4928 0.0219562 99.0439C0.243519 101.307 1.17625 100.958 11.8139 94.6242C22.8216 88.0706 32.6879 83.3118 59.7467 71.5056C150.183 32.0463 192.423 17.5805 239.803 9.84316C249.088 8.32675 263.918 8.59084 263.918 10.2723C263.918 12.5184 254.616 20.1783 233.08 35.6674C206.586 54.7231 190.457 67.3635 189.029 70.1919C186.588 75.0247 189.273 78.5121 195.081 78.055C198.401 77.7939 199.155 77.5962 214.373 72.9975C258.068 59.7937 285.993 53.0924 323.84 46.7284C381.474 37.0366 418.196 33.4612 487.235 30.8186C512.043 29.8693 513.325 29.7368 517.904 27.6583C519.669 26.8572 521.777 26.0742 522.589 25.9181C524.492 25.5528 524.468 25.0856 522.53 24.7411C521.686 24.5908 519.746 23.8739 518.219 23.1476C514.453 21.357 511.957 21.2634 490.45 22.1065C418.353 24.9324 380.418 28.5463 325.447 37.825C296.537 42.7048 283.654 45.3563 262.603 50.76C248.211 54.4539 210.224 65.208 204.903 67.0943C202 68.1236 214.603 58.414 236.739 42.5672C264.741 22.5217 270.316 17.0773 270.342 9.75345C270.371 1.49466 265.282 -0.697221 248.572 0.377767Z" fill="#DBFE01"/>
<path d="M248.572 0.377767C216.01 2.47357 153.488 21.7396 94.6765 47.8C89.9339 49.9017 83.686 52.6721 80.7923 53.9566C41.7711 71.2783 20.7852 82.2017 6.09565 92.8382C0.362777 96.9896 -0.129747 97.4928 0.0219562 99.0439C0.243519 101.307 1.17625 100.958 11.8139 94.6242C22.8216 88.0706 32.6879 83.3118 59.7467 71.5056C150.183 32.0463 192.423 17.5805 239.803 9.84316C249.088 8.32675 263.918 8.59084 263.918 10.2723C263.918 12.5184 254.616 20.1783 233.08 35.6674C206.586 54.7231 190.457 67.3635 189.029 70.1919C186.588 75.0247 189.273 78.5121 195.081 78.055C198.401 77.7939 199.155 77.5962 214.373 72.9975C258.068 59.7937 285.993 53.0924 323.84 46.7284C381.474 37.0366 418.196 33.4612 487.235 30.8186C512.043 29.8693 513.325 29.7368 517.904 27.6583C519.669 26.8572 521.777 26.0742 522.589 25.9181C524.492 25.5528 524.468 25.0856 522.53 24.7411C521.686 24.5908 519.746 23.8739 518.219 23.1476C514.453 21.357 511.957 21.2634 490.45 22.1065C418.353 24.9324 380.418 28.5463 325.447 37.825C296.537 42.7048 283.654 45.3563 262.603 50.76C248.211 54.4539 210.224 65.208 204.903 67.0943C202 68.1236 214.603 58.414 236.739 42.5672C264.741 22.5217 270.316 17.0773 270.342 9.75345C270.371 1.49466 265.282 -0.697221 248.572 0.377767Z" stroke="#DBFE01"/>
</svg>
