<svg width="128" height="129" viewBox="0 0 128 129" fill="none" xmlns="http://www.w3.org/2000/svg">
<path d="M16 16.1128H32V32.2255H16V16.1128Z" fill="black"/>
<path d="M48 0V48.338H0V0H48ZM40 8.05634H8V40.2817H40V8.05634ZM32 96.6761H16V112.789H32V96.6761Z" fill="black"/>
<path d="M48 80.5635V128.902H0V80.5635H48ZM8 88.6198V120.845H40V88.6198H8ZM96 16.1128H112V32.2255H96V16.1128Z" fill="black"/>
<path d="M80 0V48.338H128V0H80ZM120 8.05634V40.2817H88V8.05634H120ZM64 8.05634V0H72V16.1127H64V32.2254H56V8.05634H64ZM64 48.338V32.2254H72V48.338H64ZM48 64.4507V56.3944H56V48.338H64V64.4507H72V56.3944H112V64.4507H80V72.507H56V64.4507H48ZM48 64.4507V72.507H16V64.4507H8V72.507H0V56.3944H24V64.4507H48ZM128 72.507H120V56.3944H128V72.507ZM120 72.507H112V88.6197H128V80.5634H120V72.507ZM88 72.507H104V80.5634H96V88.6197H88V72.507ZM104 96.6761V88.6197H96V96.6761H88V104.732H72V112.789H96V96.6761H104ZM104 96.6761H128V104.732H112V112.789H104V96.6761ZM72 88.6197V96.6761H80V80.5634H56V88.6197H72Z" fill="black"/>
<path d="M56 96.676H64V120.845H96V128.901H56V96.676ZM128 112.789V128.901H104V120.845H120V112.789H128Z" fill="black"/>
</svg>
