<svg width="28" height="29" viewBox="0 0 28 29" fill="none" xmlns="http://www.w3.org/2000/svg">
<path d="M27.8806 27.3033L20.0926 19.5153C21.9641 17.2685 22.8974 14.3867 22.6982 11.4694C22.4991 8.55205 21.1829 5.8238 19.0235 3.85218C16.864 1.88055 14.0276 0.81737 11.1042 0.883794C8.18084 0.950219 5.39562 2.14114 3.32795 4.20881C1.26028 6.27648 0.0693596 9.0617 0.00293512 11.9851C-0.0634894 14.9084 0.999695 17.7449 2.97132 19.9043C4.94294 22.0638 7.67119 23.38 10.5885 23.5791C13.5059 23.7782 16.3877 22.845 18.6344 20.9735L26.4224 28.7615L27.8806 27.3033ZM2.09938 12.2615C2.09938 10.4258 2.64371 8.63139 3.66355 7.1051C4.68339 5.57881 6.13292 4.38921 7.82885 3.68673C9.52477 2.98425 11.3909 2.80045 13.1913 3.15857C14.9917 3.51669 16.6455 4.40065 17.9435 5.69865C19.2415 6.99666 20.1254 8.65042 20.4835 10.4508C20.8417 12.2512 20.6579 14.1173 19.9554 15.8133C19.2529 17.5092 18.0633 18.9587 16.537 19.9786C15.0107 20.9984 13.2163 21.5427 11.3806 21.5427C8.91992 21.54 6.56079 20.5613 4.82081 18.8213C3.08083 17.0813 2.10211 14.7222 2.09938 12.2615Z" fill="black"/>
</svg>
